<svg width="744" height="331" viewBox="0 0 744 331" fill="none" xmlns="http://www.w3.org/2000/svg">
<g clip-path="url(#clip0)">
<path d="M316.736 211.033H15.3257C11.2625 211.028 7.36698 209.412 4.49384 206.539C1.6207 203.666 0.00456071 199.77 0 195.707V11.6711C0.00342481 8.57682 1.23409 5.6103 3.42201 3.4223C5.60993 1.23431 8.57642 0.00353243 11.6707 0H320.217C323.358 0.00353681 326.368 1.25255 328.589 3.473C330.809 5.69346 332.058 8.70402 332.061 11.8442V195.707C332.057 199.77 330.441 203.666 327.568 206.539C324.694 209.412 320.799 211.028 316.736 211.033V211.033Z" fill="white"/>
<path d="M316.736 211.033H15.3257C11.2625 211.028 7.36698 209.412 4.49384 206.539C1.6207 203.666 0.00456071 199.77 0 195.707V11.6711C0.00342481 8.57682 1.23409 5.6103 3.42201 3.4223C5.60993 1.23431 8.57642 0.00353243 11.6707 0H320.217C323.358 0.00353681 326.368 1.25255 328.589 3.473C330.809 5.69346 332.058 8.70402 332.061 11.8442V195.707C332.057 199.77 330.441 203.666 327.568 206.539C324.694 209.412 320.799 211.028 316.736 211.033V211.033ZM11.6707 3.31367C9.45497 3.31626 7.33078 4.19762 5.7641 5.76439C4.19741 7.33115 3.31615 9.45537 3.31367 11.6711V195.707C3.31729 198.892 4.58401 201.945 6.83592 204.197C9.08783 206.449 12.141 207.716 15.3257 207.719H316.736C319.92 207.716 322.974 206.449 325.226 204.197C327.477 201.945 328.744 198.892 328.748 195.707V11.8442C328.745 9.58255 327.846 7.41424 326.247 5.815C324.647 4.21576 322.479 3.3162 320.217 3.31367H11.6707Z" fill="#E6E6E6"/>
<path d="M137.61 164.438H47.2955C45.0859 164.434 42.9524 163.63 41.2911 162.173C39.6298 160.716 38.5534 158.706 38.2616 156.515C38.2067 156.121 38.1804 155.723 38.1829 155.325V55.7078C38.1857 53.2918 39.1466 50.9756 40.855 49.2672C42.5633 47.5589 44.8795 46.5979 47.2955 46.5952H137.61C140.026 46.5979 142.342 47.5589 144.05 49.2672C145.758 50.9756 146.719 53.2918 146.722 55.7078V155.325C146.719 157.741 145.758 160.057 144.05 161.766C142.342 163.474 140.026 164.435 137.61 164.438V164.438ZM47.2955 51.5657C46.1974 51.567 45.1445 52.0038 44.368 52.7803C43.5915 53.5568 43.1547 54.6096 43.1534 55.7078V155.325C43.1516 155.495 43.1622 155.665 43.185 155.834C43.3118 156.836 43.799 157.757 44.5555 158.426C45.3119 159.094 46.286 159.464 47.2955 159.467H137.61C138.708 159.466 139.761 159.029 140.537 158.253C141.314 157.476 141.75 156.423 141.752 155.325V55.7078C141.75 54.6096 141.314 53.5568 140.537 52.7803C139.761 52.0038 138.708 51.567 137.61 51.5657H47.2955Z" fill="#E6E6E6"/>
<path d="M287.251 132.046H177.9C176.142 132.046 174.457 131.348 173.214 130.105C171.971 128.862 171.273 127.177 171.273 125.419C171.273 123.661 171.971 121.976 173.214 120.733C174.457 119.49 176.142 118.792 177.9 118.792H287.251C289.009 118.792 290.694 119.49 291.937 120.733C293.18 121.976 293.878 123.661 293.878 125.419C293.878 127.177 293.18 128.862 291.937 130.105C290.694 131.348 289.009 132.046 287.251 132.046Z" fill="#E6E6E6"/>
<path d="M237.546 103.88H177.9C176.142 103.88 174.457 103.182 173.214 101.939C171.971 100.696 171.273 99.0105 171.273 97.2528C171.273 95.4951 171.971 93.8095 173.214 92.5666C174.457 91.3237 176.142 90.6255 177.9 90.6255H237.546C239.304 90.6255 240.989 91.3237 242.232 92.5666C243.475 93.8095 244.173 95.4951 244.173 97.2528C244.173 99.0105 243.475 100.696 242.232 101.939C240.989 103.182 239.304 103.88 237.546 103.88Z" fill="#E6E6E6"/>
<path d="M122.231 102.778C122.231 117.419 108.693 115.205 91.9939 115.205C75.2944 115.205 61.7567 117.419 61.7567 102.778C61.7567 88.1378 68.3695 62.186 91.9939 62.186C116.432 62.186 122.231 88.1378 122.231 102.778Z" fill="#2F2E41"/>
<path d="M123.454 127.419C122.871 125.735 121.708 124.314 120.174 123.409C119.877 123.227 119.567 123.069 119.246 122.937C117.9 122.377 116.42 122.222 114.988 122.49C113.555 122.758 112.231 123.437 111.179 124.445C110.126 125.453 109.39 126.746 109.06 128.165C108.73 129.585 108.821 131.07 109.321 132.439L121.367 159.818H137.231L123.454 127.419Z" fill="#3F3D56"/>
<path d="M70.891 128.91C69.9389 128.45 68.9003 128.196 67.8434 128.166C66.7864 128.135 65.7349 128.329 64.7579 128.733C63.7809 129.137 62.9005 129.744 62.1743 130.512C61.4481 131.281 60.8926 132.194 60.5442 133.193L49.3275 159.578C49.9019 159.738 50.4955 159.819 51.0919 159.818H65.1669L74.6767 138.213C75.311 136.469 75.275 134.551 74.5754 132.832C73.8759 131.113 72.5629 129.715 70.891 128.91V128.91Z" fill="#3F3D56"/>
<path d="M91.8928 115.18C103.13 115.18 112.24 106.071 112.24 94.8333C112.24 83.5961 103.13 74.4866 91.8928 74.4866C80.6556 74.4866 71.5461 83.5961 71.5461 94.8333C71.5461 106.071 80.6556 115.18 91.8928 115.18Z" fill="#FFB8B8"/>
<path d="M120.53 123.732C120.414 123.624 120.298 123.509 120.174 123.409C118.755 122.13 117.077 121.174 115.253 120.606C113.43 120.039 111.505 119.873 109.611 120.12L72.117 124.867C68.6823 125.292 65.5484 127.038 63.38 129.736C61.2116 132.433 60.1795 135.869 60.5026 139.315C61.0163 145.097 61.8447 152.395 63.1703 159.818H122.402L124.581 134.502C124.756 132.518 124.483 130.52 123.782 128.655C123.081 126.791 121.969 125.109 120.53 123.732V123.732Z" fill="#3F3D56"/>
<path d="M68.3841 92.8374H76.4316L79.9819 82.8964L80.6918 92.8374H84.5382L86.6092 87.0385L87.0234 92.8374H115.604C115.604 87.125 113.335 81.6465 109.295 77.6072C105.256 73.5679 99.7774 71.2986 94.065 71.2986H89.9229C84.2104 71.2986 78.732 73.5679 74.6926 77.6072C70.6533 81.6465 68.3841 87.125 68.3841 92.8374V92.8374Z" fill="#2F2E41"/>
<path d="M411.939 195.707V11.8442C411.942 8.70402 413.191 5.69346 415.411 3.473C417.632 1.25255 420.642 0.00353681 423.783 0H732.329C735.424 0.00353243 738.39 1.23431 740.578 3.4223C742.766 5.6103 743.997 8.57682 744 11.6711V195.707C743.995 199.77 742.379 203.666 739.506 206.539C736.633 209.412 732.738 211.028 728.674 211.033H427.264C423.201 211.028 419.306 209.412 416.432 206.539C413.559 203.666 411.943 199.77 411.939 195.707V195.707Z" fill="white"/>
<path d="M411.939 195.707V11.8442C411.942 8.70402 413.191 5.69346 415.411 3.473C417.632 1.25255 420.642 0.00353681 423.783 0H732.329C735.424 0.00353243 738.39 1.23431 740.578 3.4223C742.766 5.6103 743.997 8.57682 744 11.6711V195.707C743.995 199.77 742.379 203.666 739.506 206.539C736.633 209.412 732.738 211.028 728.674 211.033H427.264C423.201 211.028 419.306 209.412 416.432 206.539C413.559 203.666 411.943 199.77 411.939 195.707V195.707ZM423.783 3.31367C421.521 3.3162 419.353 4.21576 417.753 5.815C416.154 7.41424 415.255 9.58255 415.252 11.8442V195.707C415.256 198.892 416.523 201.945 418.774 204.197C421.026 206.449 424.08 207.716 427.264 207.719H728.674C731.859 207.716 734.912 206.449 737.164 204.197C739.416 201.945 740.683 198.892 740.686 195.707V11.6711C740.684 9.45537 739.803 7.33115 738.236 5.76439C736.669 4.19762 734.545 3.31626 732.329 3.31367H423.783Z" fill="#E6E6E6"/>
<path d="M597.278 155.325V55.7078C597.281 53.2918 598.242 50.9756 599.95 49.2672C601.658 47.5589 603.974 46.5979 606.39 46.5952H696.704C699.12 46.5979 701.437 47.5589 703.145 49.2672C704.853 50.9756 705.814 53.2918 705.817 55.7078V155.325C705.82 155.723 705.793 156.121 705.738 156.515C705.447 158.706 704.37 160.716 702.709 162.173C701.048 163.63 698.914 164.434 696.704 164.438H606.39C603.974 164.435 601.658 163.474 599.95 161.766C598.242 160.057 597.281 157.741 597.278 155.325V155.325ZM606.39 51.5657C605.292 51.567 604.239 52.0038 603.463 52.7803C602.686 53.5568 602.25 54.6096 602.248 55.7078V155.325C602.25 156.423 602.686 157.476 603.463 158.253C604.239 159.029 605.292 159.466 606.39 159.467H696.704C697.714 159.464 698.688 159.094 699.445 158.426C700.201 157.757 700.688 156.836 700.815 155.834C700.838 155.665 700.848 155.495 700.847 155.325V55.7078C700.845 54.6096 700.408 53.5568 699.632 52.7803C698.855 52.0038 697.803 51.567 696.704 51.5657H606.39Z" fill="#E6E6E6"/>
<path d="M450.122 125.419C450.124 123.662 450.822 121.978 452.065 120.735C453.307 119.493 454.992 118.794 456.749 118.792H566.1C567.858 118.792 569.543 119.49 570.786 120.733C572.029 121.976 572.727 123.661 572.727 125.419C572.727 127.177 572.029 128.862 570.786 130.105C569.543 131.348 567.858 132.046 566.1 132.046H456.749C454.992 132.044 453.307 131.346 452.065 130.103C450.822 128.861 450.124 127.176 450.122 125.419V125.419Z" fill="#E6E6E6"/>
<path d="M450.122 97.2528C450.124 95.4958 450.822 93.8112 452.065 92.5688C453.307 91.3264 454.992 90.6275 456.749 90.6255H516.395C518.153 90.6255 519.838 91.3237 521.081 92.5666C522.324 93.8095 523.022 95.4951 523.022 97.2528C523.022 99.0105 522.324 100.696 521.081 101.939C519.838 103.182 518.153 103.88 516.395 103.88H456.749C454.992 103.878 453.307 103.179 452.065 101.937C450.822 100.694 450.124 99.0099 450.122 97.2528Z" fill="#E6E6E6"/>
<path d="M629.228 85.3071C635.036 96.7256 639.613 108.503 652.424 108.503C658.576 108.503 664.476 106.059 668.826 101.709C673.176 97.3589 675.62 91.459 675.62 85.3071C675.62 79.1552 673.176 73.2553 668.826 68.9053C664.476 64.5552 658.576 62.1114 652.424 62.1114C639.405 61.9484 618.418 64.0537 629.228 85.3071Z" fill="#2F2E41"/>
<path d="M651.282 108.954C662.519 108.954 671.629 99.8447 671.629 88.6075C671.629 77.3703 662.519 68.2607 651.282 68.2607C640.045 68.2607 630.935 77.3703 630.935 88.6075C630.935 99.8447 640.045 108.954 651.282 108.954Z" fill="#A0616A"/>
<path d="M679.061 125.696C677.749 124.267 676.322 122.948 674.795 121.752C668.116 116.518 659.744 113.923 651.276 114.462C650.936 114.479 650.597 114.504 650.257 114.537C645.352 114.929 640.587 116.361 636.279 118.738C631.971 121.115 628.219 124.382 625.272 128.322C622.279 132.322 620.175 136.915 619.101 141.794C618.026 146.673 618.006 151.725 619.042 156.612C619.266 157.648 619.465 158.691 619.655 159.735H687.105L687.883 154.516C688.662 149.358 688.274 144.091 686.747 139.103C685.22 134.116 682.593 129.534 679.061 125.696V125.696Z" fill="#3F3D56"/>
<path d="M689.391 131.138C688.916 128.416 687.5 125.947 685.392 124.161C683.283 122.375 680.615 121.385 677.851 121.363C677.744 121.363 677.628 121.371 677.52 121.371C676.6 121.392 675.685 121.52 674.795 121.752C673.298 122.15 671.894 122.84 670.664 123.782C669.434 124.724 668.402 125.899 667.628 127.241C666.854 128.582 666.352 130.064 666.152 131.6C665.951 133.136 666.056 134.696 666.461 136.192L672.831 159.735H694.271L689.391 131.138Z" fill="#3F3D56"/>
<path d="M642.213 124.967C641.405 123.38 640.246 121.997 638.825 120.924C637.819 120.164 636.693 119.576 635.495 119.184C635.005 119.017 634.504 118.884 633.995 118.787C631.224 118.262 628.357 118.746 625.912 120.149C623.466 121.553 621.602 123.785 620.657 126.441L608.994 159.735H631.129L642.42 135.247C643.173 133.632 643.545 131.865 643.509 130.083C643.474 128.301 643.03 126.551 642.213 124.967V124.967Z" fill="#3F3D56"/>
<path d="M629.691 77.1087C634.341 80.3134 639.859 82.0188 645.506 81.9963C643.492 83.3929 641.199 84.3364 638.785 84.7615C646.293 86.372 654.052 86.4156 661.578 84.8896C663.251 84.6214 664.865 84.067 666.349 83.2508C667.089 82.8376 667.734 82.2734 668.241 81.5948C668.748 80.9162 669.107 80.1384 669.294 79.3119C669.795 76.4551 667.568 73.8596 665.255 72.1104C661.713 69.4731 657.629 67.6561 653.299 66.7908C648.969 65.9255 644.5 66.0335 640.217 67.1071C637.42 67.83 634.618 69.0516 632.801 71.2977C630.984 73.5439 630.446 77.0068 632.177 79.3197L629.691 77.1087Z" fill="#2F2E41"/>
<path d="M522.705 330.325H221.295C217.232 330.32 213.336 328.704 210.463 325.831C207.59 322.958 205.974 319.062 205.969 314.999V130.963C205.973 127.869 207.203 124.902 209.391 122.714C211.579 120.526 214.546 119.296 217.64 119.292H526.187C529.327 119.296 532.337 120.545 534.558 122.765C536.778 124.985 538.027 127.996 538.031 131.136V314.999C538.026 319.062 536.41 322.958 533.537 325.831C530.664 328.704 526.768 330.32 522.705 330.325V330.325Z" fill="white"/>
<path d="M522.705 330.325H221.295C217.232 330.32 213.336 328.704 210.463 325.831C207.59 322.958 205.974 319.062 205.969 314.999V130.963C205.973 127.869 207.203 124.902 209.391 122.714C211.579 120.526 214.546 119.296 217.64 119.292H526.187C529.327 119.296 532.337 120.545 534.558 122.765C536.778 124.985 538.027 127.996 538.031 131.136V314.999C538.026 319.062 536.41 322.958 533.537 325.831C530.664 328.704 526.768 330.32 522.705 330.325V330.325ZM217.64 122.606C215.424 122.608 213.3 123.49 211.733 125.056C210.167 126.623 209.285 128.747 209.283 130.963V314.999C209.287 318.184 210.553 321.237 212.805 323.489C215.057 325.741 218.11 327.008 221.295 327.011H522.705C525.89 327.008 528.943 325.741 531.195 323.489C533.447 321.237 534.713 318.184 534.717 314.999V131.136C534.715 128.875 533.815 126.706 532.216 125.107C530.617 123.508 528.448 122.608 526.187 122.606H217.64Z" fill="#3F3D56"/>
<path d="M343.579 283.73H253.265C251.055 283.726 248.922 282.922 247.26 281.465C245.599 280.008 244.523 277.998 244.231 275.807C244.176 275.413 244.15 275.015 244.152 274.617V175C244.155 172.584 245.116 170.268 246.824 168.559C248.533 166.851 250.849 165.89 253.265 165.887H343.579C345.995 165.89 348.311 166.851 350.019 168.559C351.728 170.268 352.689 172.584 352.691 175V274.617C352.689 277.033 351.728 279.349 350.019 281.058C348.311 282.766 345.995 283.727 343.579 283.73V283.73ZM253.265 170.858C252.167 170.859 251.114 171.296 250.337 172.072C249.561 172.849 249.124 173.902 249.123 175V274.617C249.121 274.787 249.131 274.957 249.154 275.126C249.281 276.128 249.768 277.049 250.525 277.717C251.281 278.386 252.255 278.756 253.265 278.759H343.579C344.677 278.758 345.73 278.321 346.506 277.544C347.283 276.768 347.72 275.715 347.721 274.617V175C347.72 173.902 347.283 172.849 346.506 172.072C345.73 171.296 344.677 170.859 343.579 170.858H253.265Z" fill="#E6E6E6"/>
<path d="M297.11 184.099C291.231 181.364 284.013 180.467 278.031 183.009C272.048 185.55 267.97 192.065 269.904 197.83C270.781 200.444 272.779 203.014 272 205.654C271.401 207.686 269.312 209.028 267.26 209.982C265.208 210.936 262.963 211.738 261.479 213.346C259.995 214.955 259.685 217.725 261.539 218.972C262.15 219.384 262.913 219.578 263.506 220.012C264.01 220.422 264.375 220.979 264.547 221.606C264.72 222.233 264.693 222.898 264.47 223.509C263.977 224.739 263.161 225.812 262.108 226.616C260.004 228.431 257.222 230.509 257.876 233.085C258.118 233.774 258.523 234.394 259.056 234.893C259.59 235.391 260.235 235.754 260.938 235.95C262.399 236.371 263.914 236.571 265.434 236.543L327.537 238.5C329.588 238.654 331.649 238.539 333.669 238.157C334.651 237.978 335.586 237.598 336.414 237.042C337.243 236.485 337.948 235.764 338.485 234.922C339.674 232.721 338.893 230.009 337.424 227.954C335.956 225.898 333.877 224.277 332.16 222.389C330.442 220.502 329.037 218.145 329.34 215.706C329.582 213.753 330.87 212.065 331.795 210.291C332.719 208.516 333.256 206.299 332.059 204.667C330.371 202.367 326.32 202.575 324.402 200.431C322.954 198.814 323.233 196.485 323.09 194.399C322.743 189.382 319.27 184.643 314.325 182.443C311.81 181.364 309.075 180.898 306.345 181.084C303.615 181.27 300.968 182.102 298.623 183.512L297.11 184.099Z" fill="#2F2E41"/>
<path d="M299.408 238.019C310.646 238.019 319.755 228.909 319.755 217.672C319.755 206.435 310.646 197.325 299.408 197.325C288.171 197.325 279.062 206.435 279.062 217.672C279.062 228.909 288.171 238.019 299.408 238.019Z" fill="#A0616A"/>
<path d="M326.122 264.295C326.101 260.729 325.114 257.234 323.264 254.185C321.414 251.136 318.771 248.646 315.617 246.981C315.361 246.84 315.095 246.716 314.83 246.592C312.541 245.506 310.062 244.876 307.532 244.736L288.164 243.651C285.428 243.495 282.69 243.915 280.128 244.885C279.504 245.117 278.893 245.383 278.297 245.68C276.425 246.603 274.713 247.819 273.227 249.284C271.27 251.216 269.738 253.537 268.731 256.096C267.724 258.656 267.263 261.398 267.378 264.146L267.727 272.355L270.162 278.676H324.316C324.987 277.862 325.571 276.979 326.055 276.042C326.973 274.222 327.457 272.214 327.469 270.176C327.48 268.138 327.019 266.125 326.122 264.295V264.295Z" fill="#3F3D56"/>
<path d="M324.796 253.41C323.912 251.492 322.527 249.849 320.787 248.654C319.531 247.794 318.122 247.181 316.636 246.848C316.042 246.718 315.438 246.632 314.83 246.592C313.634 246.51 312.433 246.614 311.268 246.898C309.529 247.331 307.911 248.153 306.537 249.302C305.162 250.452 304.067 251.899 303.334 253.534C302.6 255.169 302.248 256.949 302.304 258.74C302.36 260.531 302.822 262.286 303.655 263.872L311.103 277.972L311.475 278.676H336.485L324.796 253.41Z" fill="#3F3D56"/>
<path d="M283.864 246.061C282.692 245.465 281.43 245.068 280.128 244.885C279.159 244.747 278.176 244.733 277.204 244.844C274.729 245.124 272.406 246.179 270.567 247.859C268.728 249.539 267.467 251.757 266.964 254.196L261.919 278.676H281.652L285.339 277.169L289.928 259.556C290.596 256.953 290.359 254.2 289.258 251.748C288.156 249.296 286.254 247.291 283.864 246.061Z" fill="#3F3D56"/>
<path d="M278.593 214.779C285.018 214.263 290.353 207.844 289.685 201.432C289.61 204.075 290.509 206.653 292.21 208.676C293.912 210.7 296.298 212.027 298.915 212.405C301.862 212.73 305.093 211.838 307.659 213.325C310.5 214.972 311.41 218.972 314.37 220.394C317.23 221.768 320.863 219.894 322.276 217.053C323.689 214.212 323.342 210.798 322.406 207.766C321.07 203.442 318.638 199.538 315.347 196.432C312.055 193.327 308.016 191.126 303.622 190.044C299.228 188.962 294.629 189.035 290.271 190.257C285.914 191.479 281.947 193.808 278.757 197.017C276.055 199.735 273.91 203.199 273.562 207.015C273.214 210.831 274.984 214.972 278.411 216.687L278.593 214.779Z" fill="#2F2E41"/>
<path d="M493.22 251.338H383.869C382.112 251.338 380.426 250.64 379.183 249.397C377.94 248.154 377.242 246.469 377.242 244.711C377.242 242.953 377.94 241.268 379.183 240.025C380.426 238.782 382.112 238.084 383.869 238.084H493.22C494.978 238.084 496.664 238.782 497.907 240.025C499.149 241.268 499.848 242.953 499.848 244.711C499.848 246.469 499.149 248.154 497.907 249.397C496.664 250.64 494.978 251.338 493.22 251.338Z" fill="#E6E6E6"/>
<path d="M443.515 223.172H383.869C382.112 223.172 380.426 222.474 379.183 221.231C377.94 219.988 377.242 218.302 377.242 216.545C377.242 214.787 377.94 213.101 379.183 211.859C380.426 210.616 382.112 209.917 383.869 209.917H443.515C445.273 209.917 446.959 210.616 448.202 211.859C449.444 213.101 450.143 214.787 450.143 216.545C450.143 218.302 449.444 219.988 448.202 221.231C446.959 222.474 445.273 223.172 443.515 223.172Z" fill="#CD5334"/>
<path d="M475.52 271.572C469.731 271.582 464.183 273.889 460.094 277.986C456.005 282.083 453.708 287.635 453.708 293.423C453.708 299.212 456.004 304.764 460.094 308.861C464.183 312.958 469.731 315.265 475.519 315.275H475.52C481.308 315.265 486.856 312.958 490.945 308.861C495.034 304.764 497.331 299.212 497.331 293.423C497.331 287.635 495.034 282.083 490.945 277.986C486.856 273.889 481.308 271.582 475.52 271.572V271.572Z" fill="#CD5334"/>
<path d="M473.446 302.499C472.871 302.5 472.311 302.314 471.851 301.969L471.822 301.947L465.813 297.35C465.252 296.919 464.885 296.283 464.793 295.581C464.701 294.879 464.891 294.17 465.321 293.608C465.752 293.047 466.387 292.679 467.089 292.586C467.79 292.493 468.5 292.682 469.062 293.112L472.955 296.096L482.153 284.097C482.366 283.819 482.632 283.585 482.935 283.41C483.239 283.234 483.574 283.12 483.921 283.074C484.269 283.029 484.622 283.052 484.961 283.142C485.299 283.233 485.617 283.389 485.895 283.602L485.896 283.603L485.839 283.682L485.897 283.603C486.459 284.034 486.826 284.671 486.918 285.373C487.011 286.074 486.821 286.784 486.391 287.346L475.573 301.454C475.322 301.779 475 302.042 474.632 302.223C474.264 302.404 473.859 302.497 473.448 302.496L473.446 302.499Z" fill="white"/>
</g>
<defs>
<clipPath id="clip0">
<rect width="744" height="330.325" fill="white"/>
</clipPath>
</defs>
</svg>
