<svg width="744" height="549" viewBox="0 0 744 549" fill="none" xmlns="http://www.w3.org/2000/svg">
<g clip-path="url(#clip0)">
<path d="M535.927 189.552H279.578C275.503 189.547 271.596 187.924 268.714 185.039C265.832 182.154 264.211 178.242 264.206 174.162V22.7709C264.21 19.7194 265.422 16.7938 267.577 14.6361C269.732 12.4783 272.655 11.2645 275.703 11.261H539.619C542.716 11.2645 545.685 12.4977 547.874 14.6899C550.064 16.8821 551.296 19.8544 551.299 22.9546V174.162C551.295 178.242 549.674 182.154 546.792 185.039C543.91 187.924 540.003 189.547 535.927 189.552V189.552Z" fill="white"/>
<path d="M535.927 189.552H279.578C275.503 189.547 271.596 187.924 268.714 185.039C265.832 182.154 264.211 178.242 264.206 174.162V22.7709C264.21 19.7194 265.422 16.7938 267.577 14.6361C269.732 12.4783 272.655 11.2645 275.703 11.261H539.619C542.716 11.2645 545.685 12.4977 547.874 14.6899C550.064 16.8821 551.296 19.8544 551.299 22.9546V174.162C551.295 178.242 549.674 182.154 546.792 185.039C543.91 187.924 540.003 189.547 535.927 189.552V189.552ZM275.703 13.0198C273.12 13.0227 270.645 14.051 268.819 15.8791C266.993 17.7071 265.966 20.1856 265.963 22.7709V174.162C265.967 177.776 267.403 181.241 269.955 183.796C272.508 186.351 275.968 187.789 279.578 187.793H535.927C539.537 187.789 542.998 186.351 545.55 183.796C548.103 181.241 549.538 177.776 549.542 174.162V22.9546C549.54 20.3207 548.493 17.7955 546.633 15.933C544.772 14.0704 542.25 13.0228 539.619 13.0198H275.703Z" fill="#3F3D56"/>
<path d="M293.632 174.162H521.873C525.6 174.162 529.175 172.68 531.811 170.041C534.447 167.403 535.927 163.824 535.927 160.092V49.6858C535.927 45.9541 534.447 42.3753 531.811 39.7366C529.175 37.0979 525.6 35.6155 521.873 35.6155H293.632C289.905 35.6155 286.33 37.0979 283.695 39.7366C281.059 42.3753 279.578 45.9541 279.578 49.6858V160.092C279.578 163.824 281.059 167.403 283.695 170.041C286.33 172.68 289.905 174.162 293.632 174.162Z" fill="#F2F2F2"/>
<path d="M551.684 21.941H263.57V14.5537C263.597 10.6728 265.16 6.96108 267.917 4.23269C270.674 1.50429 274.4 -0.0179409 278.276 -8.85464e-05H536.978C540.854 -0.0179595 544.579 1.50426 547.336 4.23266C550.093 6.96106 551.657 10.6728 551.684 14.5537V21.941Z" fill="#3D7068"/>
<path d="M291.317 14.7592C293.395 14.7592 295.079 13.0728 295.079 10.9924C295.079 8.91205 293.395 7.22559 291.317 7.22559C289.239 7.22559 287.554 8.91205 287.554 10.9924C287.554 13.0728 289.239 14.7592 291.317 14.7592Z" fill="white"/>
<path d="M305.598 14.7592C307.676 14.7592 309.361 13.0728 309.361 10.9924C309.361 8.91205 307.676 7.22559 305.598 7.22559C303.52 7.22559 301.836 8.91205 301.836 10.9924C301.836 13.0728 303.52 14.7592 305.598 14.7592Z" fill="white"/>
<path d="M319.88 14.7592C321.958 14.7592 323.643 13.0728 323.643 10.9924C323.643 8.91205 321.958 7.22559 319.88 7.22559C317.802 7.22559 316.118 8.91205 316.118 10.9924C316.118 13.0728 317.802 14.7592 319.88 14.7592Z" fill="white"/>
<path d="M334.258 133.909C328.525 133.909 322.921 132.207 318.154 129.018C313.387 125.83 309.672 121.297 307.478 115.994C305.284 110.692 304.71 104.857 305.828 99.2274C306.947 93.5981 309.707 88.4272 313.761 84.3687C317.815 80.3102 322.98 77.5463 328.603 76.4265C334.226 75.3068 340.054 75.8815 345.351 78.0779C350.648 80.2744 355.175 83.994 358.36 88.7663C361.545 93.5386 363.245 99.1493 363.245 104.889C363.236 112.583 360.18 119.959 354.745 125.4C349.311 130.84 341.943 133.9 334.258 133.909V133.909Z" fill="#3D7068"/>
<path d="M503.207 128.633H391.021C389.209 128.657 387.454 127.995 386.109 126.78C384.763 125.565 383.925 123.886 383.762 122.079C383.697 121.117 383.83 120.152 384.153 119.244C384.476 118.336 384.981 117.503 385.639 116.799C386.296 116.094 387.091 115.532 387.974 115.147C388.857 114.762 389.81 114.563 390.773 114.562H502.929C504.75 114.536 506.513 115.199 507.866 116.42C509.218 117.641 510.059 119.329 510.22 121.145C510.281 122.105 510.144 123.067 509.819 123.972C509.495 124.877 508.988 125.706 508.331 126.407C507.674 127.109 506.88 127.668 505.999 128.051C505.118 128.434 504.168 128.632 503.207 128.633Z" fill="#3F3D56"/>
<path d="M444.355 98.733H391.021C389.209 98.757 387.454 98.0953 386.109 96.8804C384.763 95.6654 383.925 93.9866 383.762 92.1797C383.697 91.2177 383.83 90.2527 384.153 89.3443C384.476 88.4359 384.981 87.6036 385.639 86.8989C386.296 86.1942 387.091 85.632 387.974 85.2474C388.857 84.8627 389.81 84.6637 390.773 84.6626H444.076C445.897 84.6358 447.661 85.2996 449.013 86.5206C450.366 87.7417 451.207 89.4296 451.368 91.2457C451.428 92.2055 451.292 93.1675 450.967 94.0724C450.642 94.9774 450.136 95.8061 449.479 96.5076C448.821 97.2091 448.028 97.7685 447.147 98.1512C446.266 98.5339 445.315 98.7319 444.355 98.733Z" fill="#3F3D56"/>
<path d="M667.664 397.84C668.096 396.621 668.255 395.323 668.132 394.036C668.008 392.749 667.604 391.505 666.948 390.391C666.293 389.278 665.401 388.322 664.336 387.59C663.271 386.859 662.059 386.37 660.785 386.159L655.489 355.184L643.582 366.345L650.437 394.048C650.224 396.214 650.812 398.383 652.089 400.145C653.367 401.906 655.245 403.137 657.368 403.604C659.492 404.071 661.713 403.743 663.61 402.68C665.508 401.618 666.95 399.895 667.664 397.84V397.84Z" fill="#FFB8B8"/>
<path d="M659.752 383.02L648.063 386.091C647.506 386.235 646.916 386.156 646.417 385.87C645.919 385.585 645.551 385.116 645.392 384.563L624.386 310.051L618.039 291.043C617.428 289.212 617.289 287.255 617.636 285.355C617.983 283.455 618.804 281.674 620.023 280.178C621.242 278.681 622.82 277.518 624.609 276.795C626.398 276.073 628.34 275.816 630.255 276.047C632.472 276.314 634.562 277.225 636.267 278.667C637.973 280.11 639.218 282.021 639.851 284.164L656.637 340.967L661.376 380.633C661.427 381.074 661.344 381.52 661.138 381.914C660.932 382.307 660.612 382.629 660.221 382.838C660.072 382.917 659.915 382.978 659.752 383.02V383.02Z" fill="#CD5334"/>
<path d="M617.031 263.479C628.946 263.479 638.605 253.809 638.605 241.88C638.605 229.951 628.946 220.281 617.031 220.281C605.116 220.281 595.457 229.951 595.457 241.88C595.457 253.809 605.116 263.479 617.031 263.479Z" fill="#FFB8B8"/>
<path d="M553.509 537.354L543.187 534.279L550.121 492.958L565.355 497.496L553.509 537.354Z" fill="#FFB8B8"/>
<path d="M553.164 548.155L519.883 538.241L520.008 537.82C520.514 536.117 521.35 534.53 522.469 533.151C523.587 531.771 524.966 530.625 526.527 529.779C528.088 528.933 529.8 528.404 531.565 528.22C533.331 528.036 535.115 528.203 536.816 528.709L536.817 528.71L557.144 534.765L553.164 548.155Z" fill="#2F2E41"/>
<path d="M666.592 536.825H655.822L650.7 495.24L661.323 495.241L666.592 536.825Z" fill="#FFB8B8"/>
<path d="M669.338 547.276L634.615 547.275V546.835C634.615 545.058 634.964 543.298 635.643 541.657C636.323 540.015 637.318 538.524 638.573 537.267C639.828 536.011 641.318 535.014 642.958 534.334C644.598 533.654 646.355 533.304 648.13 533.304H648.131L669.339 533.305L669.338 547.276Z" fill="#2F2E41"/>
<path d="M557.479 525.128H546.667C546.087 525.128 545.515 525.001 544.99 524.754C544.465 524.508 544.001 524.149 543.63 523.704C543.259 523.258 542.99 522.736 542.843 522.174C542.696 521.613 542.674 521.026 542.779 520.456C535.884 517.385 573.01 339.137 581.782 342.593L582.07 342.176L626.242 345.785C646.027 385.427 658.551 451.025 670.27 519.504C670.414 520.073 670.43 520.666 670.317 521.241C670.204 521.817 669.965 522.36 669.617 522.831C669.268 523.302 668.82 523.69 668.303 523.967C667.787 524.244 667.215 524.402 666.63 524.43L654.482 525.02C653.66 525.063 652.845 524.846 652.152 524.401C651.459 523.956 650.923 523.304 650.62 522.537L604.075 406.046C603.982 405.791 603.811 405.573 603.585 405.424C603.359 405.275 603.091 405.202 602.821 405.217C602.552 405.22 602.29 405.306 602.072 405.465C601.855 405.624 601.692 405.847 601.607 406.103L561.213 522.47C560.943 523.247 560.439 523.919 559.77 524.396C559.101 524.872 558.3 525.128 557.479 525.128V525.128Z" fill="#2F2E41"/>
<path d="M627.167 349.273L626.83 349.248L579.8 345.695L588.049 293.169C588.955 287.306 591.729 281.893 595.96 277.738C600.19 273.583 605.649 270.909 611.521 270.116C611.883 270.065 612.247 270.015 612.613 269.967C617.226 269.359 621.919 269.949 626.239 271.68C630.559 273.411 634.362 276.225 637.283 279.852C640.274 283.499 642.277 287.855 643.101 292.501C643.924 297.147 643.541 301.927 641.987 306.382L627.167 349.273Z" fill="#CD5334"/>
<path d="M658.924 266.586C644.089 273.38 623.961 272.164 600.95 266.586C604.134 257.854 606.616 249.42 603.801 243.229C602.665 240.891 602.023 238.344 601.917 235.747C601.81 233.149 602.242 230.558 603.183 228.135C605.389 222.853 609.106 218.342 613.867 215.169C618.627 211.997 624.218 210.304 629.937 210.305V210.305C637.625 210.305 644.998 213.362 650.434 218.804C655.87 224.247 658.924 231.628 658.924 239.325V266.586Z" fill="#2F2E41"/>
<path d="M608.856 212.28H627.302V234.99H588.653V232.506C588.653 227.141 590.781 221.997 594.57 218.204C598.359 214.41 603.497 212.28 608.856 212.28V212.28Z" fill="#2F2E41"/>
<path d="M578.783 402.725C579.735 401.851 580.484 400.779 580.977 399.585C581.47 398.39 581.696 397.101 581.638 395.81C581.58 394.518 581.24 393.255 580.641 392.11C580.043 390.964 579.201 389.964 578.175 389.179L587.995 359.332L572.252 363.605L565.34 391.294C564.138 393.107 563.642 395.299 563.946 397.454C564.25 399.61 565.333 401.578 566.99 402.987C568.647 404.396 570.763 405.148 572.936 405.1C575.11 405.051 577.19 404.206 578.783 402.725V402.725Z" fill="#FFB8B8"/>
<path d="M578.731 385.922L566.967 383.151C566.408 383.017 565.924 382.67 565.617 382.183C565.31 381.697 565.205 381.11 565.323 380.548L581.645 304.869L584.936 285.1C585.253 283.195 586.047 281.401 587.242 279.886C588.438 278.37 589.997 277.182 591.775 276.432C593.552 275.682 595.49 275.394 597.409 275.595C599.327 275.797 601.164 276.481 602.747 277.584V277.584C604.581 278.859 606.001 280.644 606.832 282.719C607.663 284.793 607.869 287.066 607.425 289.256L595.664 347.311L581.283 384.575C581.121 384.988 580.839 385.344 580.473 385.595C580.107 385.845 579.674 385.98 579.231 385.98C579.062 385.98 578.895 385.961 578.731 385.922V385.922Z" fill="#CD5334"/>
<path d="M743.122 548.456H408.453C408.22 548.456 407.997 548.363 407.832 548.198C407.668 548.033 407.575 547.809 407.575 547.576C407.575 547.343 407.668 547.119 407.832 546.954C407.997 546.789 408.22 546.697 408.453 546.697H743.122C743.355 546.697 743.578 546.789 743.743 546.954C743.907 547.119 744 547.343 744 547.576C744 547.809 743.907 548.033 743.743 548.198C743.578 548.363 743.355 548.456 743.122 548.456Z" fill="#CCCCCC"/>
<path d="M118.613 338.518C118.142 338.639 117.682 338.797 117.236 338.99L80.6293 315.348L81.1342 304.765L65.2806 301.915L62.568 320.563C62.3489 322.069 62.6238 323.606 63.3515 324.943C64.0792 326.28 65.2203 327.344 66.6037 327.976L111.689 348.581C111.913 350.442 112.698 352.191 113.939 353.594C115.18 354.998 116.819 355.99 118.637 356.438C120.455 356.887 122.366 356.77 124.117 356.105C125.867 355.439 127.374 354.256 128.436 352.712C129.498 351.168 130.066 349.337 130.063 347.463C130.061 345.588 129.488 343.759 128.422 342.218C127.356 340.677 125.846 339.498 124.094 338.837C122.342 338.176 120.43 338.065 118.613 338.518H118.613Z" fill="#FFB8B8"/>
<path d="M79.1358 314.696L59.5038 311.068C58.9452 310.965 58.4154 310.742 57.9505 310.416C57.4855 310.089 57.0964 309.666 56.8096 309.175C56.5228 308.684 56.345 308.137 56.2883 307.571C56.2317 307.005 56.2975 306.434 56.4813 305.896L62.9239 287.043C63.4673 284.184 65.1209 281.658 67.5221 280.018C69.9232 278.379 72.8759 277.759 75.7326 278.296C78.5892 278.832 81.1168 280.481 82.7608 282.881C84.4049 285.281 85.0312 288.235 84.5026 291.096L83.8036 310.946C83.7834 311.514 83.6411 312.071 83.3864 312.579C83.1317 313.088 82.7706 313.535 82.3276 313.891C81.8846 314.247 81.3702 314.503 80.8194 314.642C80.2686 314.781 79.6944 314.8 79.1358 314.696V314.696Z" fill="#3F3D56"/>
<path d="M461.448 260.032H126.779C123.897 260.028 121.063 260.777 118.557 262.204C117.957 262.545 117.379 262.924 116.827 263.338C114.736 264.89 113.038 266.91 111.868 269.238C110.698 271.565 110.089 274.135 110.09 276.74V450.86C110.094 455.291 111.853 459.538 114.982 462.671C118.111 465.803 122.354 467.565 126.779 467.569H461.448C465.873 467.565 470.115 465.803 473.244 462.671C476.373 459.538 478.133 455.29 478.137 450.86V276.74C478.133 272.31 476.373 268.062 473.244 264.93C470.115 261.797 465.873 260.036 461.448 260.032V260.032Z" fill="white"/>
<path d="M461.448 260.032H126.779C123.897 260.028 121.063 260.777 118.557 262.204C117.957 262.545 117.379 262.924 116.827 263.338C114.736 264.89 113.038 266.91 111.868 269.238C110.698 271.565 110.089 274.135 110.09 276.74V450.86C110.094 455.291 111.853 459.538 114.982 462.671C118.111 465.803 122.354 467.565 126.779 467.569H461.448C465.873 467.565 470.115 465.803 473.244 462.671C476.373 459.538 478.133 455.29 478.137 450.86V276.74C478.133 272.31 476.373 268.062 473.244 264.93C470.115 261.797 465.873 260.036 461.448 260.032V260.032ZM476.38 450.86C476.375 454.824 474.8 458.623 472 461.425C469.201 464.228 465.406 465.804 461.448 465.81H126.779C122.821 465.804 119.026 464.228 116.227 461.425C113.427 458.623 111.852 454.824 111.847 450.86V276.74C111.859 273.581 112.866 270.505 114.723 267.951C116.58 265.397 119.195 263.494 122.194 262.511C122.317 262.476 122.431 262.432 122.554 262.397C123.926 261.993 125.349 261.789 126.779 261.79H461.448C465.406 261.796 469.201 263.373 472 266.175C474.8 268.978 476.375 272.777 476.38 276.74V450.86Z" fill="#3F3D56"/>
<path d="M293.748 363.726C292.415 363.726 291.103 363.387 289.936 362.742L115.098 266.402C114.894 266.29 114.743 266.101 114.678 265.877C114.613 265.653 114.64 265.412 114.752 265.208C114.864 265.003 115.053 264.852 115.277 264.787C115.501 264.722 115.741 264.749 115.945 264.861L290.783 361.202C291.675 361.695 292.675 361.957 293.694 361.966C294.712 361.975 295.717 361.73 296.617 361.253L474.333 267.396C474.436 267.342 474.547 267.308 474.662 267.297C474.777 267.286 474.893 267.298 475.003 267.332C475.114 267.366 475.216 267.422 475.305 267.496C475.394 267.569 475.468 267.66 475.522 267.762C475.575 267.865 475.609 267.976 475.619 268.092C475.63 268.207 475.618 268.323 475.584 268.433C475.549 268.544 475.494 268.646 475.42 268.735C475.346 268.824 475.255 268.897 475.153 268.951L297.437 362.808C296.3 363.41 295.034 363.725 293.748 363.726V363.726Z" fill="#3F3D56"/>
<path d="M165.926 423.599H141.331C139.468 423.599 137.68 422.858 136.362 421.538C135.045 420.219 134.304 418.43 134.304 416.564C134.304 414.698 135.045 412.908 136.362 411.589C137.68 410.27 139.468 409.529 141.331 409.529H165.926C167.79 409.529 169.578 410.27 170.895 411.589C172.213 412.908 172.954 414.698 172.954 416.564C172.954 418.43 172.213 420.219 170.895 421.538C169.578 422.858 167.79 423.599 165.926 423.599Z" fill="#3F3D56"/>
<path d="M194.913 447.343H141.331C139.468 447.343 137.68 446.601 136.362 445.282C135.045 443.963 134.304 442.173 134.304 440.307C134.304 438.442 135.045 436.652 136.362 435.333C137.68 434.013 139.468 433.272 141.331 433.272H194.913C196.777 433.272 198.565 434.013 199.882 435.333C201.2 436.652 201.941 438.442 201.941 440.307C201.941 442.173 201.2 443.963 199.882 445.282C198.565 446.601 196.777 447.343 194.913 447.343Z" fill="#3F3D56"/>
<path d="M293.677 391.941C309.201 391.941 321.786 379.342 321.786 363.8C321.786 348.258 309.201 335.659 293.677 335.659C278.153 335.659 265.569 348.258 265.569 363.8C265.569 379.342 278.153 391.941 293.677 391.941Z" fill="#3D7068"/>
<path d="M166.26 276.587L290.134 328.328C290.561 328.507 291.041 328.509 291.47 328.335L419.181 276.594C419.559 276.441 419.872 276.161 420.066 275.802C420.261 275.443 420.324 275.028 420.247 274.627C420.169 274.227 419.954 273.866 419.639 273.606C419.325 273.347 418.93 273.205 418.522 273.205H166.936C166.53 273.205 166.137 273.345 165.822 273.603C165.508 273.861 165.293 274.219 165.214 274.618C165.134 275.017 165.194 275.431 165.385 275.789C165.576 276.148 165.885 276.43 166.26 276.587Z" fill="#F2F2F2"/>
<path d="M147.402 263.56C147.294 264.034 147.224 264.517 147.192 265.002L109.458 286.795L100.287 281.509L90.5091 294.324L105.837 305.262C107.076 306.145 108.567 306.603 110.087 306.566C111.607 306.529 113.075 305.999 114.268 305.056L153.178 274.325C154.934 274.976 156.846 275.076 158.661 274.612C160.475 274.148 162.105 273.142 163.334 271.728C164.564 270.314 165.334 268.559 165.542 266.696C165.751 264.833 165.388 262.951 164.502 261.3C163.616 259.648 162.249 258.306 160.582 257.452C158.915 256.597 157.028 256.271 155.172 256.516C153.316 256.762 151.578 257.567 150.19 258.825C148.802 260.083 147.83 261.735 147.402 263.56V263.56Z" fill="#FFB8B8"/>
<path d="M108.197 287.828L96.0015 303.652C95.6545 304.102 95.2146 304.472 94.7119 304.737C94.2091 305.001 93.6553 305.155 93.0881 305.186C92.521 305.217 91.9538 305.125 91.4252 304.917C90.8966 304.709 90.419 304.389 90.0249 303.979L76.2189 289.627C73.9284 287.836 72.4405 285.209 72.0815 282.322C71.7224 279.435 72.5214 276.523 74.3034 274.225C76.0854 271.927 78.7049 270.43 81.5876 270.062C84.4704 269.695 87.3811 270.486 89.6817 272.264L106.998 281.957C107.493 282.235 107.923 282.616 108.258 283.075C108.594 283.534 108.826 284.06 108.94 284.618C109.054 285.175 109.046 285.75 108.918 286.304C108.79 286.858 108.544 287.378 108.197 287.828H108.197Z" fill="#43C59E"/>
<path d="M58.2557 250.045C70.1709 250.045 79.83 240.375 79.83 228.447C79.83 216.518 70.1709 206.848 58.2557 206.848C46.3406 206.848 36.6815 216.518 36.6815 228.447C36.6815 240.375 46.3406 250.045 58.2557 250.045Z" fill="#FFB8B8"/>
<path d="M78.6207 537.704H89.3898L94.5126 496.119L78.6189 496.12L78.6207 537.704Z" fill="#FFB8B8"/>
<path d="M75.8738 534.185L97.0816 534.184H97.0825C98.8574 534.184 100.615 534.533 102.255 535.213C103.894 535.893 105.384 536.89 106.639 538.147C107.894 539.403 108.89 540.895 109.569 542.536C110.248 544.178 110.598 545.937 110.598 547.714V548.154L75.8745 548.155L75.8738 534.185Z" fill="#2F2E41"/>
<path d="M41.7281 537.704H52.4973L57.6201 496.119L41.7264 496.12L41.7281 537.704Z" fill="#FFB8B8"/>
<path d="M38.9813 534.185L60.189 534.184H60.1899C61.9648 534.184 63.7223 534.533 65.3621 535.213C67.0018 535.893 68.4918 536.89 69.7468 538.147C71.0018 539.403 71.9973 540.895 72.6765 542.536C73.3558 544.178 73.7053 545.937 73.7053 547.714V548.154L38.9819 548.155L38.9813 534.185Z" fill="#2F2E41"/>
<path d="M75.3895 521.922L64.4049 436.837C64.3992 436.724 64.3494 436.618 64.2663 436.541C64.1832 436.464 64.0734 436.423 63.9604 436.426C63.9038 436.424 63.8475 436.434 63.7947 436.454C63.7419 436.475 63.6939 436.506 63.6534 436.545C63.613 436.585 63.581 436.632 63.5594 436.685C63.5378 436.737 63.527 436.793 63.5278 436.85L60.3711 520.7C60.3357 521.724 59.9036 522.694 59.1663 523.405C58.4291 524.116 57.4445 524.512 56.4209 524.509H43.3771C42.3435 524.515 41.3492 524.112 40.6095 523.39C39.8699 522.667 39.4445 521.681 39.4256 520.647L36.0394 380.941L94.414 381.525L95.8712 521.68C95.8582 522.237 95.728 522.785 95.4891 523.288C95.2502 523.791 94.908 524.238 94.4848 524.6C94.0706 524.957 93.5861 525.223 93.0626 525.38C92.5391 525.538 91.9884 525.584 91.4462 525.514L78.7968 525.549C77.9001 525.426 77.0727 524.999 76.4526 524.339C75.8326 523.679 75.4573 522.826 75.3895 521.922Z" fill="#2F2E41"/>
<path d="M35.1747 384.762C34.5217 384.512 33.9467 384.093 33.5084 383.547C33.0702 383.002 32.7844 382.35 32.6802 381.658L32.0976 304.878C29.5177 287.783 26.4663 271.031 41.396 262.37L42.7114 258.418C42.8548 257.992 43.1252 257.619 43.4864 257.35C43.8476 257.081 44.2822 256.93 44.732 256.916L73.0538 256.106C73.4945 256.091 73.9294 256.21 74.301 256.447C74.6726 256.685 74.9634 257.03 75.1348 257.437L77.2414 262.359L77.9894 262.785C85.1047 266.846 90.8662 272.917 94.5531 280.239C98.2401 287.56 99.6888 295.808 98.7181 303.95L97.0987 317.637L95.9484 381.603C95.9335 382.305 95.7338 382.99 95.3695 383.591C95.0052 384.191 94.4892 384.684 93.8736 385.021C85.6459 389.531 76.5309 391.073 67.9058 391.073C53.4141 391.073 40.3122 386.716 35.1747 384.762Z" fill="#43C59E"/>
<path d="M57.5532 250.845C54.3062 250.916 51.0811 250.297 48.0899 249.031C45.0986 247.764 42.409 245.878 40.1976 243.497C37.9862 241.116 36.3033 238.293 35.2593 235.214C34.2154 232.135 33.834 228.87 34.1403 225.633C34.4467 222.396 35.4338 219.26 37.0367 216.432C38.6397 213.605 40.8223 211.148 43.441 209.225C46.0597 207.302 49.0553 205.955 52.2309 205.274C55.4065 204.592 58.6903 204.591 61.8663 205.271C66.6107 202.387 72.1267 200.446 77.6553 200.939C83.1838 201.433 88.6513 204.719 90.7187 209.876C92.7861 215.033 90.5651 221.831 85.4245 223.926C82.1289 225.27 78.4073 224.618 74.8903 224.077C71.3733 223.535 67.5367 223.181 64.4758 224.998C61.4149 226.815 60.039 231.686 62.7803 233.958C64.2334 235.209 65.2711 236.875 65.7551 238.732C66.2391 240.589 66.1464 242.549 65.4894 244.352C64.1116 247.919 60.3513 250.785 57.5532 250.845Z" fill="#2F2E41"/>
<path d="M137.908 548.456H0.878394C0.64543 548.456 0.422006 548.363 0.257275 548.198C0.0925442 548.033 0 547.809 0 547.576C0 547.343 0.0925442 547.119 0.257275 546.954C0.422006 546.789 0.64543 546.697 0.878394 546.697H137.908C138.141 546.697 138.364 546.789 138.529 546.954C138.694 547.119 138.786 547.343 138.786 547.576C138.786 547.809 138.694 548.033 138.529 548.198C138.364 548.363 138.141 548.456 137.908 548.456Z" fill="#CCCCCC"/>
</g>
<defs>
<clipPath id="clip0">
<rect width="744" height="548.456" fill="white"/>
</clipPath>
</defs>
</svg>
