<svg width="744" height="537" viewBox="0 0 744 537" fill="none" xmlns="http://www.w3.org/2000/svg">
<g clip-path="url(#clip0)">
<path d="M742.925 532.882H1.07514C0.789998 532.882 0.51653 532.768 0.314902 532.567C0.113273 532.365 0 532.092 0 531.807C0 531.522 0.113273 531.249 0.314902 531.048C0.51653 530.846 0.789998 530.733 1.07514 530.733H742.925C743.21 530.733 743.483 530.846 743.685 531.048C743.887 531.249 744 531.522 744 531.807C744 532.092 743.887 532.365 743.685 532.567C743.483 532.768 743.21 532.882 742.925 532.882Z" fill="#CCCCCC"/>
<path d="M669.497 345.528H232.989C231.135 345.528 229.358 346.264 228.047 347.573C226.736 348.883 226 350.659 226 352.511C226 354.363 226.736 356.139 228.047 357.448C229.358 358.758 231.135 359.493 232.989 359.493H245.353V526.542C245.353 528.394 246.089 530.17 247.4 531.479C248.71 532.789 250.488 533.524 252.341 533.524C254.195 533.524 255.972 532.789 257.283 531.479C258.593 530.17 259.33 528.394 259.33 526.542L259.436 359.493H642.081V526.542C642.081 528.394 642.817 530.17 644.128 531.479C645.438 532.789 647.216 533.524 649.069 533.524C650.923 533.524 652.7 532.789 654.011 531.479C655.322 530.17 656.058 528.394 656.058 526.542V363.175L658.091 359.493H669.497C671.351 359.493 673.128 358.758 674.439 357.448C675.749 356.139 676.486 354.363 676.486 352.511C676.486 350.659 675.749 348.883 674.439 347.573C673.128 346.264 671.351 345.528 669.497 345.528Z" fill="#CCCCCC"/>
<path d="M474.993 349.182H342.769C340.209 349.179 337.754 348.162 335.944 346.353C334.134 344.544 333.115 342.092 333.113 339.533V266.796C333.115 264.238 334.134 261.785 335.944 259.976C337.754 258.168 340.209 257.15 342.769 257.147H474.993C477.553 257.15 480.007 258.168 481.818 259.976C483.628 261.785 484.646 264.238 484.649 266.796V339.533C484.646 342.092 483.628 344.544 481.818 346.353C480.007 348.162 477.553 349.179 474.993 349.182V349.182Z" fill="#3F3D56"/>
<path d="M474.992 264.573H342.77C342.18 264.575 341.615 264.809 341.198 265.226C340.781 265.643 340.546 266.208 340.545 266.797V339.535C340.546 340.125 340.781 340.69 341.198 341.106C341.615 341.523 342.18 341.758 342.77 341.759H474.992C475.582 341.758 476.147 341.523 476.564 341.106C476.981 340.69 477.216 340.125 477.217 339.535V266.797C477.216 266.208 476.981 265.643 476.564 265.226C476.147 264.809 475.582 264.575 474.992 264.573V264.573Z" fill="white"/>
<path d="M420.158 316.071C420.158 316.071 404.329 312.427 395.624 319.108C386.918 325.79 406.704 340.975 406.704 340.975L420.158 316.071Z" fill="#2F2E41"/>
<path d="M409.656 309.186C417.902 309.186 424.587 302.506 424.587 294.267C424.587 286.028 417.902 279.349 409.656 279.349C401.41 279.349 394.725 286.028 394.725 294.267C394.725 302.506 401.41 309.186 409.656 309.186Z" fill="#A0616A"/>
<path d="M398.111 273.325C399.106 271.637 400.55 270.256 402.281 269.335C404.013 268.415 405.965 267.99 407.923 268.109C409.971 268.366 411.969 268.925 413.853 269.768L423.613 273.572C426.139 274.556 428.905 275.762 430.001 278.24C431.018 280.539 430.259 283.195 429.491 285.589L425.839 296.969C425.435 294.393 424.741 291.871 423.77 289.451C422.783 287.015 421.001 284.984 418.712 283.689C416.177 282.39 413.189 282.417 410.342 282.553C406.312 282.747 401.929 283.26 399.065 286.1C397.545 287.714 396.514 289.725 396.093 291.901C395.678 294.065 395.469 296.263 395.469 298.466C393.816 295.627 392.424 292.645 391.309 289.555C390.392 287.254 389.87 284.815 389.763 282.341C389.668 279.846 390.496 277.403 392.091 275.48C392.9 274.54 393.956 273.845 395.14 273.473C396.323 273.101 397.587 273.066 398.789 273.373L398.111 273.325Z" fill="#2F2E41"/>
<path d="M445.307 329.008C445.166 328.504 444.881 328.053 444.485 327.71C444.089 327.368 443.601 327.151 443.081 327.085C443.047 327.061 443.011 327.039 442.974 327.02L420.684 314.539C420.048 314.183 419.298 314.085 418.592 314.267C417.885 314.449 417.276 314.896 416.891 315.515L410.795 325.377L401.613 316.202L401.467 316.057C400.996 315.586 400.374 315.296 399.71 315.238C399.046 315.18 398.383 315.357 397.837 315.739L379.519 328.556C379.487 328.556 379.454 328.567 379.422 328.567C378.545 328.713 377.745 329.154 377.152 329.816C376.56 330.478 376.211 331.322 376.164 332.209L375.691 341.759H448.844L445.307 329.008Z" fill="#3D7068"/>
<path d="M486.135 340.276H472.021C472.021 339.882 471.865 339.504 471.586 339.226C471.307 338.948 470.93 338.791 470.536 338.791H466.079C465.685 338.791 465.307 338.948 465.028 339.226C464.749 339.504 464.593 339.882 464.593 340.276H460.136C460.136 339.882 459.979 339.504 459.701 339.226C459.422 338.948 459.044 338.791 458.65 338.791H454.193C453.799 338.791 453.421 338.948 453.143 339.226C452.864 339.504 452.708 339.882 452.708 340.276H448.251C448.251 339.882 448.094 339.504 447.816 339.226C447.537 338.948 447.159 338.791 446.765 338.791H442.308C441.914 338.791 441.536 338.948 441.258 339.226C440.979 339.504 440.822 339.882 440.822 340.276H436.366C436.366 339.882 436.209 339.504 435.93 339.226C435.652 338.948 435.274 338.791 434.88 338.791H430.423C430.029 338.791 429.651 338.948 429.372 339.226C429.094 339.504 428.937 339.882 428.937 340.276H424.48C424.48 339.882 424.324 339.504 424.045 339.226C423.767 338.948 423.389 338.791 422.995 338.791H418.538C418.144 338.791 417.766 338.948 417.487 339.226C417.208 339.504 417.052 339.882 417.052 340.276H412.595C412.595 339.882 412.438 339.504 412.16 339.226C411.881 338.948 411.503 338.791 411.109 338.791H406.652C406.258 338.791 405.881 338.948 405.602 339.226C405.323 339.504 405.167 339.882 405.167 340.276H400.71C400.71 339.882 400.553 339.504 400.275 339.226C399.996 338.948 399.618 338.791 399.224 338.791H394.767C394.373 338.791 393.995 338.948 393.717 339.226C393.438 339.504 393.282 339.882 393.282 340.276H388.825C388.825 339.882 388.668 339.504 388.389 339.226C388.111 338.948 387.733 338.791 387.339 338.791H382.882C382.488 338.791 382.11 338.948 381.831 339.226C381.553 339.504 381.396 339.882 381.396 340.276H376.939C376.939 339.882 376.783 339.504 376.504 339.226C376.226 338.948 375.848 338.791 375.454 338.791H370.997C370.603 338.791 370.225 338.948 369.946 339.226C369.668 339.504 369.511 339.882 369.511 340.276H365.054C365.054 339.882 364.898 339.504 364.619 339.226C364.34 338.948 363.962 338.791 363.568 338.791H359.111C358.717 338.791 358.34 338.948 358.061 339.226C357.782 339.504 357.626 339.882 357.626 340.276H353.169C353.169 339.882 353.012 339.504 352.734 339.226C352.455 338.948 352.077 338.791 351.683 338.791H347.226C346.832 338.791 346.454 338.948 346.176 339.226C345.897 339.504 345.741 339.882 345.741 340.276H331.627C331.041 340.275 330.461 340.389 329.919 340.613C329.378 340.836 328.885 341.164 328.471 341.578C328.056 341.991 327.727 342.482 327.503 343.023C327.279 343.564 327.163 344.144 327.163 344.729C327.163 345.314 327.279 345.894 327.503 346.435C327.727 346.976 328.056 347.467 328.471 347.88C328.885 348.294 329.378 348.622 329.919 348.845C330.461 349.069 331.041 349.183 331.627 349.182H486.135C487.317 349.182 488.451 348.713 489.286 347.878C490.122 347.043 490.592 345.91 490.592 344.729C490.592 343.548 490.122 342.415 489.286 341.58C488.451 340.745 487.317 340.276 486.135 340.276V340.276Z" fill="#3F3D56"/>
<path d="M308.651 314.414V343.984H234.507C232.521 344.053 230.541 343.722 228.685 343.01C226.829 342.298 225.136 341.22 223.706 339.84C222.277 338.46 221.14 336.807 220.363 334.979C219.586 333.151 219.186 331.185 219.186 329.199C219.186 327.213 219.586 325.247 220.363 323.419C221.14 321.591 222.277 319.937 223.706 318.558C225.136 317.178 226.829 316.1 228.685 315.388C230.541 314.676 232.521 314.345 234.507 314.414H308.651Z" fill="#F2F2F2"/>
<path d="M310.473 343.756C310.473 344.058 310.353 344.347 310.139 344.561C309.926 344.774 309.636 344.894 309.334 344.894H233.186C229.053 344.89 225.09 343.247 222.168 340.326C219.247 337.404 217.606 333.443 217.606 329.313C217.606 325.183 219.247 321.221 222.168 318.3C225.09 315.378 229.053 313.735 233.186 313.732H309.334C309.636 313.732 309.926 313.851 310.139 314.065C310.353 314.278 310.473 314.567 310.473 314.869C310.473 315.171 310.353 315.46 310.139 315.673C309.926 315.886 309.636 316.006 309.334 316.006H233.186C229.657 316.009 226.272 317.413 223.777 319.908C221.282 322.403 219.881 325.786 219.881 329.313C219.881 332.84 221.282 336.222 223.777 338.718C226.272 341.213 229.657 342.616 233.186 342.619H309.334C309.636 342.619 309.926 342.739 310.139 342.952C310.353 343.166 310.473 343.455 310.473 343.756V343.756Z" fill="#3D7068"/>
<path d="M308.651 321.238H228.975C228.915 321.238 228.857 321.214 228.814 321.171C228.771 321.129 228.747 321.071 228.747 321.01C228.747 320.95 228.771 320.892 228.814 320.85C228.857 320.807 228.915 320.783 228.975 320.783H308.651C308.712 320.783 308.77 320.807 308.812 320.85C308.855 320.892 308.879 320.95 308.879 321.01C308.879 321.071 308.855 321.129 308.812 321.171C308.77 321.214 308.712 321.238 308.651 321.238V321.238Z" fill="#CCCCCC"/>
<path d="M308.651 326.697H228.975C228.915 326.697 228.857 326.673 228.814 326.63C228.771 326.588 228.747 326.53 228.747 326.469C228.747 326.409 228.771 326.351 228.814 326.309C228.857 326.266 228.915 326.242 228.975 326.242H308.651C308.712 326.242 308.77 326.266 308.812 326.309C308.855 326.351 308.879 326.409 308.879 326.469C308.879 326.53 308.855 326.588 308.812 326.63C308.77 326.673 308.712 326.697 308.651 326.697V326.697Z" fill="#CCCCCC"/>
<path d="M308.651 332.156H228.975C228.915 332.156 228.857 332.131 228.815 332.089C228.773 332.046 228.749 331.989 228.749 331.929C228.749 331.868 228.773 331.811 228.815 331.768C228.857 331.726 228.915 331.701 228.975 331.701H308.651C308.682 331.701 308.711 331.707 308.739 331.718C308.767 331.729 308.792 331.746 308.813 331.767C308.835 331.788 308.852 331.813 308.863 331.841C308.875 331.869 308.881 331.899 308.881 331.929C308.881 331.959 308.875 331.988 308.863 332.016C308.852 332.044 308.835 332.069 308.813 332.09C308.792 332.111 308.767 332.128 308.739 332.139C308.711 332.15 308.682 332.156 308.651 332.156V332.156Z" fill="#CCCCCC"/>
<path d="M308.651 337.615H228.975C228.915 337.615 228.857 337.59 228.815 337.548C228.773 337.505 228.749 337.448 228.749 337.388C228.749 337.327 228.773 337.27 228.815 337.227C228.857 337.185 228.915 337.161 228.975 337.16H308.651C308.682 337.16 308.711 337.166 308.739 337.177C308.767 337.188 308.792 337.205 308.813 337.226C308.835 337.247 308.852 337.272 308.863 337.3C308.875 337.328 308.881 337.358 308.881 337.388C308.881 337.418 308.875 337.447 308.863 337.475C308.852 337.503 308.835 337.528 308.813 337.549C308.792 337.57 308.767 337.587 308.739 337.598C308.711 337.609 308.682 337.615 308.651 337.615Z" fill="#CCCCCC"/>
<path d="M294.675 283.26V312.83H220.53C218.544 312.899 216.564 312.568 214.708 311.856C212.852 311.144 211.159 310.066 209.729 308.686C208.3 307.307 207.163 305.654 206.386 303.825C205.609 301.997 205.209 300.031 205.209 298.045C205.209 296.059 205.609 294.093 206.386 292.265C207.163 290.437 208.3 288.784 209.729 287.404C211.159 286.024 212.852 284.946 214.708 284.234C216.564 283.523 218.544 283.191 220.53 283.26H294.675Z" fill="#F2F2F2"/>
<path d="M296.496 312.603C296.496 312.904 296.376 313.194 296.162 313.407C295.949 313.62 295.659 313.74 295.357 313.74H219.21C215.076 313.737 211.113 312.094 208.191 309.172C205.27 306.25 203.629 302.289 203.629 298.159C203.629 294.029 205.27 290.068 208.191 287.146C211.113 284.224 215.076 282.581 219.21 282.578H295.357C295.659 282.578 295.949 282.698 296.162 282.911C296.376 283.124 296.496 283.414 296.496 283.715C296.496 284.017 296.376 284.306 296.162 284.519C295.949 284.733 295.659 284.853 295.357 284.853H219.21C215.68 284.856 212.295 286.259 209.801 288.754C207.306 291.249 205.904 294.632 205.904 298.159C205.904 301.686 207.306 305.069 209.801 307.564C212.295 310.059 215.68 311.462 219.21 311.465H295.357C295.659 311.466 295.949 311.585 296.162 311.799C296.376 312.012 296.496 312.301 296.496 312.603V312.603Z" fill="#3F3D56"/>
<path d="M294.675 290.084H214.998C214.938 290.084 214.88 290.06 214.837 290.018C214.794 289.975 214.77 289.917 214.77 289.857C214.77 289.796 214.794 289.739 214.837 289.696C214.88 289.653 214.938 289.629 214.998 289.629H294.675C294.735 289.629 294.793 289.653 294.836 289.696C294.878 289.739 294.902 289.796 294.902 289.857C294.902 289.917 294.878 289.975 294.836 290.018C294.793 290.06 294.735 290.084 294.675 290.084V290.084Z" fill="#CCCCCC"/>
<path d="M294.675 295.543H214.998C214.938 295.543 214.88 295.519 214.837 295.477C214.794 295.434 214.77 295.376 214.77 295.316C214.77 295.255 214.794 295.198 214.837 295.155C214.88 295.112 214.938 295.088 214.998 295.088H294.675C294.735 295.088 294.793 295.112 294.836 295.155C294.878 295.198 294.902 295.255 294.902 295.316C294.902 295.376 294.878 295.434 294.836 295.477C294.793 295.519 294.735 295.543 294.675 295.543V295.543Z" fill="#CCCCCC"/>
<path d="M294.674 301.002H214.998C214.938 301.002 214.88 300.978 214.838 300.935C214.796 300.893 214.772 300.835 214.772 300.775C214.772 300.715 214.796 300.657 214.838 300.615C214.88 300.572 214.938 300.548 214.998 300.547H294.674C294.705 300.547 294.734 300.553 294.762 300.564C294.79 300.576 294.815 300.592 294.837 300.613C294.858 300.635 294.875 300.66 294.886 300.687C294.898 300.715 294.904 300.745 294.904 300.775C294.904 300.805 294.898 300.835 294.886 300.862C294.875 300.89 294.858 300.915 294.837 300.936C294.815 300.957 294.79 300.974 294.762 300.985C294.734 300.997 294.705 301.002 294.674 301.002Z" fill="#CCCCCC"/>
<path d="M294.674 306.461H214.998C214.938 306.461 214.88 306.437 214.838 306.394C214.796 306.352 214.772 306.294 214.772 306.234C214.772 306.174 214.796 306.116 214.838 306.074C214.88 306.031 214.938 306.007 214.998 306.006H294.674C294.705 306.006 294.734 306.012 294.762 306.023C294.79 306.035 294.815 306.051 294.837 306.073C294.858 306.094 294.875 306.119 294.886 306.146C294.898 306.174 294.904 306.204 294.904 306.234C294.904 306.264 294.898 306.294 294.886 306.321C294.875 306.349 294.858 306.374 294.837 306.395C294.815 306.416 294.79 306.433 294.762 306.444C294.734 306.456 294.705 306.462 294.674 306.461Z" fill="#CCCCCC"/>
<path d="M380.927 449.089V423.307C380.927 422.167 380.474 421.074 379.667 420.268C378.861 419.462 377.767 419.01 376.626 419.01H278.788C277.648 419.01 276.554 419.462 275.747 420.268C274.941 421.074 274.488 422.167 274.488 423.307V449.089H380.927Z" fill="#CCCCCC"/>
<path d="M380.927 458.757H274.488V492.06H380.927V458.757Z" fill="#CCCCCC"/>
<path d="M274.488 501.728V527.51C274.488 528.65 274.941 529.743 275.747 530.549C276.554 531.355 277.648 531.807 278.788 531.807H376.626C377.767 531.807 378.861 531.355 379.667 530.549C380.474 529.743 380.927 528.65 380.927 527.51V501.728H274.488Z" fill="#CCCCCC"/>
<path d="M327.17 438.346C328.951 438.346 330.395 436.903 330.395 435.124C330.395 433.344 328.951 431.901 327.17 431.901C325.389 431.901 323.944 433.344 323.944 435.124C323.944 436.903 325.389 438.346 327.17 438.346Z" fill="white"/>
<path d="M327.17 481.317C328.951 481.317 330.395 479.874 330.395 478.094C330.395 476.314 328.951 474.871 327.17 474.871C325.389 474.871 323.944 476.314 323.944 478.094C323.944 479.874 325.389 481.317 327.17 481.317Z" fill="white"/>
<path d="M327.343 523.378C329.124 523.378 330.568 521.935 330.568 520.155C330.568 518.375 329.124 516.932 327.343 516.932C325.561 516.932 324.117 518.375 324.117 520.155C324.117 521.935 325.561 523.378 327.343 523.378Z" fill="white"/>
<path d="M368.86 389.613V419.183H294.715C292.729 419.252 290.749 418.92 288.893 418.208C287.037 417.496 285.344 416.418 283.915 415.039C282.485 413.659 281.348 412.006 280.571 410.178C279.795 408.349 279.394 406.384 279.394 404.398C279.394 402.411 279.795 400.446 280.571 398.618C281.348 396.789 282.485 395.136 283.915 393.756C285.344 392.377 287.037 391.299 288.893 390.587C290.749 389.875 292.729 389.544 294.715 389.613H368.86Z" fill="#F2F2F2"/>
<path d="M370.681 418.955C370.681 419.257 370.561 419.546 370.347 419.759C370.134 419.972 369.844 420.092 369.542 420.092H293.394C289.259 420.092 285.292 418.451 282.368 415.529C279.444 412.607 277.801 408.644 277.801 404.511C277.801 400.379 279.444 396.416 282.368 393.494C285.292 390.572 289.259 388.93 293.394 388.93H369.542C369.844 388.93 370.134 389.05 370.347 389.263C370.561 389.477 370.681 389.766 370.681 390.068C370.681 390.369 370.561 390.658 370.347 390.872C370.134 391.085 369.844 391.205 369.542 391.205H293.394C289.862 391.205 286.475 392.607 283.978 395.102C281.48 397.598 280.077 400.982 280.077 404.511C280.077 408.04 281.48 411.425 283.978 413.92C286.475 416.416 289.862 417.818 293.394 417.818H369.542C369.844 417.818 370.134 417.938 370.347 418.151C370.561 418.364 370.681 418.653 370.681 418.955V418.955Z" fill="#3F3D56"/>
<path d="M368.86 396.436H289.183C289.123 396.436 289.065 396.412 289.022 396.37C288.979 396.327 288.955 396.269 288.955 396.209C288.955 396.149 288.979 396.091 289.022 396.048C289.065 396.005 289.123 395.981 289.183 395.981H368.86C368.92 395.981 368.978 396.005 369.021 396.048C369.063 396.091 369.087 396.149 369.087 396.209C369.087 396.269 369.063 396.327 369.021 396.37C368.978 396.412 368.92 396.436 368.86 396.436Z" fill="#CCCCCC"/>
<path d="M368.86 401.895H289.183C289.123 401.895 289.065 401.872 289.022 401.829C288.979 401.786 288.955 401.728 288.955 401.668C288.955 401.608 288.979 401.55 289.022 401.507C289.065 401.465 289.123 401.44 289.183 401.44H368.86C368.92 401.44 368.978 401.465 369.021 401.507C369.063 401.55 369.087 401.608 369.087 401.668C369.087 401.728 369.063 401.786 369.021 401.829C368.978 401.872 368.92 401.895 368.86 401.895Z" fill="#CCCCCC"/>
<path d="M368.86 407.354H289.183C289.123 407.354 289.065 407.33 289.023 407.287C288.981 407.245 288.957 407.187 288.957 407.127C288.957 407.067 288.981 407.009 289.023 406.967C289.065 406.924 289.123 406.9 289.183 406.9H368.86C368.89 406.899 368.919 406.905 368.947 406.916C368.975 406.928 369 406.945 369.022 406.966C369.043 406.987 369.06 407.012 369.071 407.04C369.083 407.067 369.089 407.097 369.089 407.127C369.089 407.157 369.083 407.187 369.071 407.214C369.06 407.242 369.043 407.267 369.022 407.288C369 407.31 368.975 407.326 368.947 407.338C368.919 407.349 368.89 407.355 368.86 407.354Z" fill="#CCCCCC"/>
<path d="M368.86 412.814H289.183C289.123 412.813 289.065 412.789 289.023 412.746C288.981 412.704 288.957 412.646 288.957 412.586C288.957 412.526 288.981 412.468 289.023 412.426C289.065 412.383 289.123 412.359 289.183 412.359H368.86C368.89 412.358 368.919 412.364 368.947 412.375C368.975 412.387 369 412.404 369.022 412.425C369.043 412.446 369.06 412.471 369.071 412.499C369.083 412.526 369.089 412.556 369.089 412.586C369.089 412.616 369.083 412.646 369.071 412.673C369.06 412.701 369.043 412.726 369.022 412.748C369 412.769 368.975 412.785 368.947 412.797C368.919 412.808 368.89 412.814 368.86 412.814Z" fill="#CCCCCC"/>
<path d="M268.905 196.613V8.07999C268.907 5.93779 269.76 3.88403 271.276 2.36927C272.792 0.854504 274.847 0.00244145 276.991 4.76837e-06H426.145C428.289 0.00244145 430.344 0.854504 431.86 2.36927C433.376 3.88403 434.229 5.93779 434.231 8.07999V196.613C434.229 198.756 433.376 200.809 431.86 202.324C430.344 203.839 428.289 204.691 426.145 204.693H276.991C274.847 204.691 272.792 203.839 271.276 202.324C269.76 200.809 268.907 198.756 268.905 196.613ZM276.991 1.79555C275.324 1.79742 273.725 2.46013 272.546 3.63829C271.367 4.81644 270.704 6.41382 270.702 8.07999V196.613C270.704 198.28 271.367 199.877 272.546 201.055C273.725 202.233 275.324 202.896 276.991 202.898H426.145C427.812 202.896 429.411 202.233 430.59 201.055C431.769 199.877 432.432 198.28 432.434 196.613V8.07999C432.432 6.41382 431.769 4.81644 430.59 3.63829C429.411 2.46013 427.812 1.79742 426.145 1.79555H276.991Z" fill="#E6E6E6"/>
<path d="M359.932 86.5833V47.8714C359.933 46.8003 360.36 45.7734 361.118 45.016C361.876 44.2586 362.903 43.8326 363.975 43.8314H396.807C397.879 43.8326 398.907 44.2586 399.665 45.016C400.423 45.7734 400.849 46.8003 400.85 47.8714V86.5833C400.849 87.6544 400.423 88.6813 399.665 89.4387C398.907 90.1961 397.879 90.6221 396.807 90.6233H363.975C362.903 90.6221 361.876 90.1961 361.118 89.4387C360.36 88.6813 359.933 87.6544 359.932 86.5833Z" fill="#3D7068"/>
<path d="M296.138 104.539V65.827C296.139 64.7559 296.565 63.729 297.323 62.9716C298.081 62.2142 299.109 61.7882 300.181 61.787H333.013C334.085 61.7882 335.112 62.2142 335.87 62.9716C336.628 63.729 337.055 64.7559 337.056 65.827V104.539C337.055 105.61 336.628 106.637 335.87 107.394C335.112 108.152 334.085 108.578 333.013 108.579H300.181C299.109 108.578 298.081 108.152 297.323 107.394C296.565 106.637 296.139 105.61 296.138 104.539Z" fill="#CD5334"/>
<path d="M347.353 159.303V120.591C347.354 119.52 347.78 118.493 348.538 117.736C349.296 116.979 350.324 116.553 351.396 116.551H384.228C385.3 116.553 386.328 116.979 387.086 117.736C387.844 118.493 388.27 119.52 388.271 120.591V159.303C388.27 160.374 387.844 161.401 387.086 162.159C386.328 162.916 385.3 163.342 384.228 163.343H351.396C350.324 163.342 349.296 162.916 348.538 162.159C347.78 161.401 347.354 160.374 347.353 159.303V159.303Z" fill="#2E282A"/>
<path d="M543.553 336.291H509.772C509.452 336.291 509.135 336.364 508.848 336.506L500.322 340.771C500.041 340.89 499.802 341.089 499.634 341.343C499.465 341.597 499.376 341.895 499.376 342.2C499.376 342.504 499.465 342.802 499.634 343.056C499.802 343.31 500.041 343.509 500.322 343.628L508.848 347.893C509.135 348.035 509.452 348.108 509.772 348.108H543.553C544.019 348.135 544.476 347.978 544.826 347.67C545.177 347.362 545.391 346.929 545.424 346.465V337.935C545.391 337.47 545.177 337.037 544.826 336.729C544.476 336.422 544.019 336.264 543.553 336.291V336.291Z" fill="#3F3D56"/>
<path d="M545.424 337.935V346.465C545.391 346.929 545.176 347.362 544.826 347.67C544.476 347.978 544.019 348.135 543.553 348.108H536.823V336.291H543.553C544.019 336.264 544.476 336.422 544.826 336.729C545.176 337.037 545.391 337.47 545.424 337.935V337.935Z" fill="#3D7068"/>
<path d="M543.299 272.48C544.829 271.82 546.481 271.491 548.148 271.513C549.814 271.536 551.457 271.91 552.968 272.612C554.48 273.313 555.826 274.325 556.919 275.583C558.011 276.84 558.826 278.314 559.308 279.908C559.459 280.413 559.574 280.928 559.653 281.449L606.892 304.856L617.825 297.617L631.427 313.264L614.735 326.81C612.727 328.426 610.252 329.353 607.676 329.452C605.099 329.551 602.56 328.818 600.434 327.361L552.505 294.243C552.148 294.395 551.784 294.527 551.414 294.641C549.818 295.123 548.139 295.263 546.486 295.051C544.833 294.84 543.243 294.282 541.821 293.413C540.399 292.545 539.176 291.386 538.233 290.013C537.291 288.64 536.649 287.083 536.35 285.444C536.262 284.969 536.204 284.488 536.176 284.005C536.043 281.587 536.654 279.186 537.928 277.126C539.201 275.065 541.076 273.444 543.299 272.48V272.48Z" fill="#FFB8B8"/>
<path d="M641.69 416.591H590.073C590.073 418.073 536.875 419.277 536.875 419.277C536.04 419.905 535.279 420.626 534.606 421.425C532.586 423.833 531.481 426.877 531.488 430.019V432.168C531.489 435.729 532.906 439.144 535.426 441.662C537.946 444.18 541.363 445.595 544.927 445.596H641.69C645.254 445.593 648.67 444.177 651.19 441.66C653.71 439.142 655.127 435.728 655.13 432.168V430.019C655.125 426.459 653.707 423.047 651.188 420.529C648.669 418.012 645.253 416.596 641.69 416.591V416.591Z" fill="#3F3D56"/>
<path d="M585.543 535.301H599.52V445.063H585.543V535.301Z" fill="#3F3D56"/>
<path d="M545.762 534.81C545.762 536.319 566.942 535.394 593.069 535.394C619.195 535.394 640.375 536.319 640.375 534.81C640.375 533.301 619.195 521.335 593.069 521.335C566.942 521.335 545.762 533.301 545.762 534.81Z" fill="#3F3D56"/>
<path d="M558.38 524.234L545.199 524.233L538.928 490.074L558.382 490.075L558.38 524.234Z" fill="#A0616A"/>
<path d="M561.741 537L519.24 536.998V536.461C519.24 534.291 519.668 532.141 520.5 530.136C521.331 528.13 522.549 526.308 524.086 524.773C525.622 523.239 527.445 522.021 529.452 521.19C531.459 520.36 533.611 519.932 535.783 519.932H535.784L561.742 519.933L561.741 537Z" fill="#2F2E41"/>
<path d="M538.665 503.051L512.388 444.173C510.194 439.211 509.951 433.605 511.708 428.472C513.465 423.339 517.093 419.055 521.869 416.474L578.866 385.936L604.875 383.725L628.867 381.546L629.04 381.839C629.261 382.212 634.419 391.115 630.932 400.877C628.288 408.281 621.408 414.065 610.485 418.067C584.988 427.408 555.535 435.392 544.055 438.39C543.548 438.52 543.074 438.755 542.664 439.081C542.254 439.407 541.918 439.815 541.678 440.28C541.437 440.74 541.294 441.244 541.257 441.762C541.221 442.279 541.292 442.798 541.467 443.287L565.88 498.09C566.135 498.785 566.226 499.53 566.148 500.266C566.07 501.002 565.823 501.71 565.427 502.336C565.032 502.962 564.497 503.488 563.866 503.875C563.234 504.262 562.522 504.499 561.784 504.567L543.543 505.894C543.388 505.909 543.234 505.916 543.08 505.916C542.146 505.916 541.232 505.645 540.448 505.137C539.665 504.628 539.046 503.904 538.665 503.051V503.051Z" fill="#2F2E41"/>
<path d="M564.83 524.234L551.65 524.233L545.379 490.074L564.833 490.075L564.83 524.234Z" fill="#A0616A"/>
<path d="M568.192 537L525.691 536.998V536.461C525.691 534.291 526.119 532.141 526.95 530.136C527.782 528.13 529 526.308 530.536 524.773C532.072 523.239 533.896 522.021 535.903 521.19C537.91 520.36 540.061 519.932 542.234 519.932H542.235L568.193 519.933L568.192 537Z" fill="#2F2E41"/>
<path d="M546.191 506.274L519.914 447.396C517.72 442.434 517.477 436.828 519.234 431.695C520.991 426.561 524.619 422.278 529.395 419.697L586.392 389.158L612.401 386.948L636.393 384.769L636.566 385.062C636.787 385.435 641.945 394.338 638.458 404.099C635.814 411.504 628.934 417.288 618.011 421.29C592.514 430.631 563.061 438.614 551.581 441.613C551.074 441.742 550.6 441.978 550.19 442.304C549.78 442.63 549.444 443.038 549.204 443.503C548.963 443.963 548.82 444.467 548.783 444.984C548.747 445.502 548.818 446.021 548.993 446.51L573.406 501.313C573.661 502.008 573.752 502.752 573.674 503.488C573.596 504.225 573.349 504.933 572.953 505.559C572.558 506.185 572.023 506.711 571.392 507.098C570.76 507.485 570.048 507.722 569.31 507.79L551.069 509.117C550.914 509.132 550.76 509.139 550.606 509.139C549.672 509.139 548.758 508.868 547.974 508.36C547.191 507.851 546.572 507.127 546.191 506.274V506.274Z" fill="#2F2E41"/>
<path d="M533.094 326.409C522.052 311.733 513.322 295.455 507.209 278.141C506.855 277.105 506.88 275.977 507.28 274.958C507.68 273.939 508.429 273.095 509.394 272.577L547.18 252.346C547.791 252.017 548.47 251.831 549.164 251.803C549.858 251.774 550.549 251.905 551.185 252.184C551.833 252.465 552.408 252.891 552.867 253.427C553.326 253.964 553.655 254.599 553.832 255.282C558.23 271.967 566.497 287.384 577.964 300.284C578.436 300.809 578.782 301.435 578.975 302.114C579.169 302.793 579.205 303.507 579.08 304.201C578.961 304.885 578.686 305.533 578.278 306.094C577.87 306.656 577.34 307.118 576.726 307.444L538.94 327.674C537.973 328.189 536.855 328.344 535.785 328.113C534.714 327.881 533.761 327.277 533.094 326.409V326.409Z" fill="#CCCCCC"/>
<path d="M535.672 324.473C535.876 324.727 536.161 324.901 536.479 324.967C536.798 325.033 537.129 324.985 537.416 324.833L575.203 304.603C575.386 304.507 575.545 304.37 575.667 304.203C575.789 304.036 575.87 303.843 575.904 303.639C575.944 303.424 575.933 303.202 575.872 302.992C575.811 302.782 575.703 302.588 575.555 302.427C563.75 289.147 555.239 273.276 550.712 256.1C550.659 255.887 550.558 255.69 550.417 255.523C550.276 255.356 550.098 255.225 549.897 255.138C549.707 255.053 549.501 255.014 549.294 255.022C549.087 255.031 548.884 255.087 548.703 255.187L510.917 275.417C510.631 275.572 510.408 275.821 510.286 276.123C510.165 276.424 510.152 276.759 510.251 277.069C516.255 294.073 524.828 310.06 535.672 324.473V324.473Z" fill="white"/>
<path d="M658.626 321.013L629.033 332.249L621.808 312.196C620.848 309.533 620.862 306.617 621.846 303.964C622.83 301.31 624.721 299.089 627.185 297.694V297.694C629.678 296.283 632.594 295.808 635.406 296.357C638.218 296.905 640.741 298.441 642.52 300.685L658.626 321.013Z" fill="#3D7068"/>
<path d="M583.355 400.465C582.732 400.025 582.21 399.458 581.824 398.8C581.438 398.143 581.196 397.411 581.115 396.653C577.325 361.299 579.965 333.632 589.185 312.071C590.809 308.352 593.255 305.049 596.34 302.411C599.425 299.773 603.069 297.867 606.997 296.838L630.918 295.632L631.042 295.692C636.44 298.333 640.842 302.643 643.596 307.982C646.35 313.32 647.308 319.403 646.33 325.329C638.636 345.593 632.193 366.691 637.106 383.711C637.312 384.423 637.373 385.168 637.283 385.904C637.194 386.639 636.957 387.349 636.586 387.99C636.227 388.61 635.744 389.15 635.168 389.577C634.592 390.004 633.935 390.308 633.236 390.471L587.673 401.301C586.936 401.476 586.169 401.492 585.424 401.348C584.679 401.204 583.974 400.903 583.355 400.466V400.465Z" fill="#43C59E"/>
<path d="M622.934 286.704C637.518 286.704 649.341 274.891 649.341 260.319C649.341 245.747 637.518 233.934 622.934 233.934C608.35 233.934 596.528 245.747 596.528 260.319C596.528 274.891 608.35 286.704 622.934 286.704Z" fill="#FFB8B8"/>
<path d="M549.661 281.217L529.081 290.294C528.298 290.638 527.41 290.658 526.613 290.349C525.816 290.041 525.173 289.429 524.827 288.647L524.318 287.495C523.974 286.713 523.954 285.826 524.263 285.03C524.572 284.233 525.185 283.591 525.966 283.245L546.546 274.168C547.329 273.824 548.217 273.804 549.014 274.113C549.811 274.422 550.454 275.034 550.8 275.815L551.309 276.967C551.653 277.749 551.673 278.636 551.364 279.433C551.055 280.229 550.442 280.871 549.661 281.217V281.217Z" fill="#CCCCCC"/>
<path d="M557.187 295.182L536.607 304.26C535.824 304.604 534.936 304.624 534.139 304.315C533.342 304.006 532.699 303.394 532.353 302.613L531.844 301.461C531.5 300.678 531.48 299.792 531.789 298.995C532.098 298.198 532.711 297.557 533.492 297.211L554.072 288.134C554.855 287.789 555.743 287.769 556.54 288.078C557.337 288.387 557.98 288.999 558.326 289.78L558.835 290.933C559.179 291.715 559.199 292.601 558.89 293.398C558.581 294.195 557.968 294.837 557.187 295.182V295.182Z" fill="#CCCCCC"/>
<path d="M573.058 349.731L527.177 313.564C526.811 313.693 526.439 313.802 526.063 313.893C524.443 314.271 522.762 314.305 521.129 313.992C519.495 313.679 517.946 313.026 516.582 312.076C515.209 311.125 514.054 309.892 513.197 308.459C512.339 307.026 511.797 305.427 511.608 303.768C511.3 301.116 511.898 298.438 513.305 296.169C514.712 293.899 516.845 292.171 519.359 291.265C520.927 290.703 522.597 290.479 524.259 290.606C525.92 290.734 527.536 291.21 529 292.005C530.465 292.8 531.745 293.895 532.756 295.219C533.767 296.542 534.487 298.064 534.869 299.685C534.987 300.199 535.069 300.72 535.115 301.245L580.789 327.572L592.155 321.034L604.746 337.505L587.099 350.073C585.032 351.532 582.551 352.287 580.021 352.225C577.492 352.163 575.05 351.289 573.058 349.731V349.731Z" fill="#FFB8B8"/>
<path d="M610.345 342.634L584.166 324.847L596.469 307.436C598.103 305.124 600.502 303.464 603.242 302.748C605.982 302.033 608.887 302.308 611.444 303.526V303.526C614.031 304.758 616.091 306.873 617.253 309.49C618.415 312.107 618.603 315.052 617.782 317.795L610.345 342.634Z" fill="#3D7068"/>
<path d="M613.253 256.389C606.466 261.031 597.554 265.802 590.622 260.859C586.071 257.614 584.637 251.604 586.482 246.33C589.802 236.846 598.921 232.67 607.642 229.47C618.979 225.309 631.323 221.999 643.026 224.979C654.729 227.958 665.073 239.28 662.96 251.162C661.261 260.717 652.241 268.667 653.521 278.286C654.81 287.968 665.707 293.064 675.327 294.794C684.947 296.525 695.712 297.081 702.625 303.985C711.445 312.793 709.243 328.535 700.944 337.834C692.645 347.134 680.122 351.349 667.987 354.214C651.908 358.011 634.518 360.006 619.248 353.705C603.978 347.404 592.094 330.443 596.518 314.538C598.386 307.82 602.788 302.142 607.042 296.614C611.296 291.087 615.604 285.307 617.226 278.525C618.579 272.874 617.578 266.312 613.827 262.073C613.145 261.331 612.715 260.392 612.6 259.391C612.486 258.39 612.691 257.378 613.188 256.501L613.253 256.389Z" fill="#2F2E41"/>
<path d="M117.268 384.585C110.464 386.975 103.158 387.574 96.0548 386.323C88.9516 385.073 82.2903 382.016 76.7127 377.447C62.5079 365.534 58.0542 345.908 54.4305 327.735L43.7121 273.984L66.1521 289.423C82.2897 300.525 98.7908 311.984 109.964 328.065C121.138 344.147 126.015 366.1 117.038 383.501" fill="#E6E6E6"/>
<path d="M115.35 449.663C117.621 433.132 119.957 416.39 118.364 399.682C116.949 384.844 112.418 370.352 103.195 358.469C98.2988 352.174 92.3414 346.78 85.5904 342.53C83.83 341.419 82.2097 344.207 83.9625 345.313C95.6437 352.689 104.679 363.581 109.765 376.419C115.382 390.696 116.284 406.258 115.316 421.424C114.731 430.595 113.49 439.706 112.24 448.806C112.141 449.217 112.203 449.651 112.412 450.019C112.621 450.387 112.962 450.662 113.366 450.788C113.779 450.899 114.218 450.843 114.59 450.632C114.961 450.422 115.234 450.073 115.35 449.663V449.663Z" fill="#F2F2F2"/>
<path d="M93.4741 420.412C90.5558 424.844 86.5444 428.45 81.8263 430.883C77.1083 433.316 71.8426 434.494 66.5367 434.304C52.9004 433.657 41.5322 424.147 31.2986 415.119L1.02979 388.416L21.0628 387.458C35.4693 386.769 50.2475 386.127 63.9692 390.566C77.6909 395.005 90.3458 405.688 92.8549 419.88" fill="#E6E6E6"/>
<path d="M121.769 459.165C110.837 439.838 98.1572 418.358 75.5003 411.492C69.2006 409.59 62.5949 408.908 56.039 409.485C53.9728 409.663 54.4887 412.845 56.5512 412.667C67.5403 411.756 78.5082 414.655 87.6083 420.877C96.3653 426.833 103.184 435.113 108.954 443.893C112.489 449.272 115.656 454.878 118.822 460.477C119.835 462.267 122.793 460.975 121.769 459.165V459.165Z" fill="#F2F2F2"/>
<path d="M139.285 479.508C138.916 475.244 137.384 471.162 134.855 467.708C132.325 464.253 128.895 461.559 124.939 459.917V448.744H106.184V460.269C102.422 461.991 99.1849 464.679 96.802 468.059C94.4192 471.439 92.9759 475.389 92.6193 479.508L88.209 530.733H143.695L139.285 479.508Z" fill="#F2F2F2"/>
</g>
<defs>
<clipPath id="clip0">
<rect width="744" height="537" fill="white"/>
</clipPath>
</defs>
</svg>
