<svg width="744" height="564" viewBox="0 0 744 564" fill="none" xmlns="http://www.w3.org/2000/svg">
<g clip-path="url(#clip0)">
<path d="M606.982 401.291H15.4444C11.4064 401.287 7.53505 399.68 4.67974 396.823C1.82443 393.967 0.218317 390.094 0.213753 386.054V21.142C0.217044 18.1824 1.39366 15.345 3.48545 13.2522C5.57725 11.1594 8.4134 9.98217 11.3717 9.97876H610.862C613.871 9.98218 616.756 11.1797 618.884 13.3087C621.012 15.4377 622.209 18.3242 622.213 21.335V386.054C622.208 390.094 620.602 393.967 617.747 396.823C614.891 399.68 611.02 401.287 606.982 401.291V401.291Z" fill="#F2F2F2"/>
<path d="M587.856 382.053H36.5586C28.4771 382.053 21.9025 375.894 21.9025 368.323V50.5528C21.9025 44.938 26.7745 40.3699 32.763 40.3699H591.472C597.56 40.3699 602.513 45.0134 602.513 50.7206V368.323C602.513 375.894 595.938 382.053 587.856 382.053Z" fill="white"/>
<path d="M622.001 23.0407H0V15.2832C0.00585563 11.23 1.61853 7.34464 4.48423 4.47948C7.34992 1.61431 11.2346 0.00334862 15.2861 0H606.715C610.766 0.00333155 614.651 1.61429 617.516 4.47946C620.382 7.34463 621.995 11.23 622.001 15.2832V23.0407Z" fill="#3D7068"/>
<path d="M27.7801 15.499C29.9637 15.499 31.734 13.728 31.734 11.5434C31.734 9.35875 29.9637 7.58777 27.7801 7.58777C25.5964 7.58777 23.8262 9.35875 23.8262 11.5434C23.8262 13.728 25.5964 15.499 27.7801 15.499Z" fill="white"/>
<path d="M42.7881 15.499C44.9717 15.499 46.742 13.728 46.742 11.5434C46.742 9.35875 44.9717 7.58777 42.7881 7.58777C40.6044 7.58777 38.8342 9.35875 38.8342 11.5434C38.8342 13.728 40.6044 15.499 42.7881 15.499Z" fill="white"/>
<path d="M57.796 15.499C59.9797 15.499 61.7499 13.728 61.7499 11.5434C61.7499 9.35875 59.9797 7.58777 57.796 7.58777C55.6124 7.58777 53.8422 9.35875 53.8422 11.5434C53.8422 13.728 55.6124 15.499 57.796 15.499Z" fill="white"/>
<path d="M177.55 90.2833H80.1203C78.1806 90.2828 76.2599 90.6646 74.4678 91.407C72.6757 92.1493 71.0473 93.2377 69.6758 94.6098C68.3042 95.982 67.2163 97.611 66.4743 99.4039C65.7323 101.197 65.3506 103.118 65.3512 105.059V171.392C65.3506 173.332 65.7323 175.254 66.4743 177.047C67.2163 178.839 68.3042 180.468 69.6758 181.841C71.0473 183.213 72.6757 184.301 74.4678 185.043C76.2599 185.786 78.1806 186.168 80.1203 186.167H177.55C181.467 186.167 185.224 184.61 187.993 181.839C190.763 179.068 192.319 175.31 192.319 171.392V105.059C192.319 101.14 190.763 97.3824 187.993 94.6115C185.224 91.8407 181.467 90.2838 177.55 90.2833V90.2833Z" fill="#CD5334"/>
<path d="M246.271 105.055V171.396C246.271 175.315 247.827 179.073 250.597 181.844C253.367 184.615 257.124 186.171 261.041 186.171H358.468C362.385 186.171 366.142 184.615 368.912 181.844C371.681 179.073 373.237 175.315 373.237 171.396V105.055C373.237 101.137 371.681 97.3785 368.912 94.6075C366.142 91.8366 362.385 90.2799 358.468 90.2799H261.041C257.124 90.2799 253.367 91.8366 250.597 94.6075C247.827 97.3785 246.271 101.137 246.271 105.055Z" fill="#CD5334"/>
<path d="M427.193 105.055V171.396C427.193 175.315 428.749 179.073 431.519 181.844C434.288 184.615 438.045 186.171 441.962 186.171H539.39C543.307 186.171 547.063 184.615 549.833 181.844C552.603 179.073 554.159 175.315 554.159 171.396V105.055C554.159 101.137 552.603 97.3785 549.833 94.6075C547.063 91.8366 543.307 90.2799 539.39 90.2799H441.962C438.045 90.2799 434.288 91.8366 431.519 94.6075C428.749 97.3785 427.193 101.137 427.193 105.055Z" fill="#E6E6E6"/>
<path d="M65.35 251.887V318.227C65.35 322.146 66.9061 325.904 69.6758 328.675C72.4456 331.446 76.2021 333.003 80.1191 333.003H177.547C181.464 333.003 185.221 331.446 187.99 328.675C190.76 325.904 192.316 322.146 192.316 318.227V251.887C192.316 247.968 190.76 244.21 187.99 241.439C185.221 238.668 181.464 237.111 177.547 237.111H80.1191C76.2021 237.111 72.4456 238.668 69.6758 241.439C66.9061 244.21 65.35 247.968 65.35 251.887Z" fill="#E6E6E6"/>
<path d="M246.271 251.887V318.227C246.271 322.146 247.827 325.904 250.597 328.675C253.367 331.446 257.124 333.003 261.041 333.003H358.468C362.385 333.003 366.142 331.446 368.912 328.675C371.681 325.904 373.237 322.146 373.237 318.227V251.887C373.237 247.968 371.681 244.21 368.912 241.439C366.142 238.668 362.385 237.111 358.468 237.111H261.041C257.124 237.111 253.367 238.668 250.597 241.439C247.827 244.21 246.271 247.968 246.271 251.887Z" fill="#E6E6E6"/>
<path d="M427.193 251.887V318.227C427.193 322.146 428.749 325.904 431.519 328.675C434.288 331.446 438.045 333.003 441.962 333.003H539.39C543.307 333.003 547.063 331.446 549.833 328.675C552.603 325.904 554.159 322.146 554.159 318.227V251.887C554.159 247.968 552.603 244.21 549.833 241.439C547.063 238.668 543.307 237.111 539.39 237.111H441.962C438.045 237.111 434.288 238.668 431.519 241.439C428.749 244.21 427.193 247.968 427.193 251.887Z" fill="#CD5334"/>
<path d="M128.833 158.542C140.049 158.542 149.141 149.446 149.141 138.226C149.141 127.005 140.049 117.909 128.833 117.909C117.618 117.909 108.526 127.005 108.526 138.226C108.526 149.446 117.618 158.542 128.833 158.542Z" fill="white"/>
<path d="M159.864 188.014H97.7974C99.2475 185.215 101.118 182.655 103.345 180.423C106.17 177.59 109.527 175.344 113.223 173.813C116.918 172.282 120.88 171.497 124.88 171.502H132.782C138.376 171.5 143.864 173.04 148.641 175.952C153.419 178.865 157.302 183.038 159.864 188.014V188.014Z" fill="white"/>
<path d="M309.754 158.542C320.97 158.542 330.062 149.446 330.062 138.226C330.062 127.005 320.97 117.909 309.754 117.909C298.539 117.909 289.447 127.005 289.447 138.226C289.447 149.446 298.539 158.542 309.754 158.542Z" fill="white"/>
<path d="M340.786 188.014H278.719C280.169 185.215 282.04 182.655 284.266 180.423C287.091 177.59 290.448 175.344 294.144 173.813C297.84 172.282 301.801 171.497 305.801 171.502H313.703C319.298 171.5 324.785 173.04 329.563 175.952C334.34 178.865 338.223 183.038 340.786 188.014V188.014Z" fill="white"/>
<path d="M490.676 158.542C501.891 158.542 510.983 149.446 510.983 138.226C510.983 127.005 501.891 117.909 490.676 117.909C479.46 117.909 470.368 127.005 470.368 138.226C470.368 149.446 479.46 158.542 490.676 158.542Z" fill="white"/>
<path d="M521.707 188.014H459.64C461.09 185.215 462.961 182.655 465.188 180.423C468.013 177.59 471.37 175.344 475.066 173.813C478.761 172.282 482.723 171.497 486.723 171.502H494.624C500.219 171.5 505.707 173.04 510.484 175.952C515.262 178.865 519.145 183.038 521.707 188.014V188.014Z" fill="white"/>
<path d="M128.833 305.374C140.049 305.374 149.141 296.278 149.141 285.057C149.141 273.837 140.049 264.741 128.833 264.741C117.618 264.741 108.526 273.837 108.526 285.057C108.526 296.278 117.618 305.374 128.833 305.374Z" fill="white"/>
<path d="M159.864 334.845H97.7974C99.2475 332.046 101.118 329.486 103.345 327.255C106.17 324.422 109.527 322.175 113.223 320.644C116.918 319.114 120.88 318.328 124.88 318.334H132.782C138.376 318.331 143.864 319.871 148.641 322.784C153.419 325.697 157.302 329.87 159.864 334.845V334.845Z" fill="white"/>
<path d="M309.754 305.374C320.97 305.374 330.062 296.278 330.062 285.057C330.062 273.837 320.97 264.741 309.754 264.741C298.539 264.741 289.447 273.837 289.447 285.057C289.447 296.278 298.539 305.374 309.754 305.374Z" fill="white"/>
<path d="M340.786 334.845H278.719C280.169 332.046 282.04 329.486 284.266 327.255C287.091 324.422 290.448 322.175 294.144 320.644C297.84 319.114 301.801 318.328 305.801 318.334H313.703C319.298 318.331 324.785 319.871 329.563 322.784C334.34 325.697 338.223 329.87 340.786 334.845V334.845Z" fill="white"/>
<path d="M490.676 305.374C501.891 305.374 510.983 296.278 510.983 285.057C510.983 273.837 501.891 264.741 490.676 264.741C479.46 264.741 470.368 273.837 470.368 285.057C470.368 296.278 479.46 305.374 490.676 305.374Z" fill="white"/>
<path d="M521.707 334.845H459.64C461.09 332.046 462.961 329.486 465.188 327.255C468.013 324.422 471.37 322.175 475.066 320.644C478.761 319.114 482.723 318.328 486.723 318.334H494.624C500.219 318.331 505.707 319.871 510.484 322.784C515.262 325.697 519.145 329.87 521.707 334.845V334.845Z" fill="white"/>
<path d="M743.077 563.053H502.156C501.911 563.053 501.676 562.956 501.503 562.783C501.33 562.609 501.233 562.375 501.233 562.13C501.233 561.885 501.33 561.65 501.503 561.477C501.676 561.303 501.911 561.206 502.156 561.206H743.077C743.322 561.206 743.557 561.303 743.73 561.477C743.903 561.65 744 561.885 744 562.13C744 562.375 743.903 562.609 743.73 562.783C743.557 562.956 743.322 563.053 743.077 563.053Z" fill="#3F3D56"/>
<path d="M619.117 551.793L607.801 551.792L602.417 508.123L619.119 508.124L619.117 551.793Z" fill="#A0616A"/>
<path d="M599.717 548.557H621.542V562.305H585.975C585.975 560.499 586.331 558.712 587.021 557.044C587.712 555.376 588.724 553.86 590 552.584C591.276 551.307 592.791 550.295 594.458 549.604C596.125 548.913 597.912 548.557 599.717 548.557V548.557Z" fill="#2F2E41"/>
<path d="M661.578 551.793L650.262 551.792L644.878 508.123L661.58 508.124L661.578 551.793Z" fill="#A0616A"/>
<path d="M642.178 548.557H664.003V562.305H628.437C628.437 560.499 628.792 558.712 629.483 557.044C630.173 555.376 631.185 553.86 632.461 552.584C633.737 551.307 635.252 550.295 636.919 549.604C638.587 548.913 640.374 548.557 642.178 548.557V548.557Z" fill="#2F2E41"/>
<path d="M660.196 421.733C658.977 420.948 657.944 419.906 657.171 418.679C656.398 417.452 655.904 416.07 655.722 414.631C655.541 413.192 655.677 411.731 656.121 410.35C656.565 408.97 657.306 407.703 658.292 406.64L650.841 300.85L672.305 302.932L672.894 406.533C674.57 408.309 675.536 410.638 675.609 413.079C675.683 415.519 674.859 417.902 673.293 419.776C671.728 421.649 669.53 422.883 667.116 423.244C664.702 423.605 662.24 423.067 660.196 421.733V421.733Z" fill="#A0616A"/>
<path d="M618.582 529.793L606.124 529.199C605.063 529.148 604.061 528.693 603.326 527.926C602.59 527.16 602.175 526.14 602.168 525.077C598.884 474.361 594.335 419.98 601.299 398.972C601.295 398.373 601.42 397.781 601.666 397.235C601.912 396.689 602.273 396.203 602.724 395.81C603.175 395.416 603.705 395.125 604.279 394.956C604.853 394.787 605.457 394.744 606.049 394.829L655.889 402.068C656.874 402.205 657.776 402.694 658.429 403.444C659.083 404.194 659.444 405.154 659.446 406.149C665.809 431.024 666.097 476.131 665.856 523C665.86 523.548 665.756 524.092 665.549 524.599C665.342 525.107 665.037 525.569 664.651 525.958C664.265 526.348 663.805 526.656 663.299 526.867C662.793 527.078 662.251 527.187 661.702 527.187H648.272C647.281 527.191 646.322 526.839 645.568 526.194C644.815 525.55 644.318 524.657 644.168 523.677L635.882 470.977C635.761 470.206 635.365 469.505 634.767 469.003C634.17 468.501 633.411 468.233 632.631 468.247C631.851 468.261 631.102 468.558 630.524 469.081C629.945 469.605 629.575 470.32 629.482 471.095L622.905 526.136C622.781 527.144 622.293 528.073 621.534 528.747C620.774 529.421 619.795 529.795 618.78 529.798C618.714 529.798 618.648 529.797 618.582 529.793Z" fill="#2F2E41"/>
<path d="M627.352 406.155C616.368 400.049 607.786 398.445 603.648 398.032C603.098 397.979 602.565 397.814 602.08 397.549C601.596 397.283 601.17 396.922 600.829 396.487C600.481 396.049 600.225 395.545 600.078 395.005C599.93 394.465 599.893 393.9 599.97 393.346L611.912 304.646C612.6 299.457 614.603 294.53 617.732 290.334C620.86 286.139 625.01 282.814 629.786 280.676C634.409 278.549 639.499 277.642 644.572 278.04C649.644 278.438 654.531 280.127 658.766 282.948C659.175 283.221 659.577 283.499 659.971 283.782C664.849 287.358 668.559 292.298 670.635 297.979C672.711 303.661 673.059 309.83 671.635 315.71C664.312 345.681 661.797 394.816 661.367 404.362C661.333 405.175 661.059 405.961 660.58 406.619C660.1 407.277 659.437 407.779 658.673 408.06C654.167 409.698 649.413 410.545 644.619 410.564C638.58 410.6 632.634 409.082 627.352 406.155Z" fill="#CD5334"/>
<path d="M655.7 336.397C655.197 336.035 654.782 335.565 654.485 335.022C654.188 334.478 654.017 333.875 653.984 333.256L652.411 304.743C652.256 301.918 653.151 299.136 654.924 296.932C656.698 294.729 659.224 293.26 662.016 292.81C664.808 292.359 667.668 292.959 670.044 294.493C672.42 296.027 674.144 298.386 674.884 301.117L681.793 326.609C682.08 327.673 681.934 328.807 681.386 329.763C680.838 330.719 679.934 331.418 678.871 331.707L659.218 337.038C658.621 337.202 657.995 337.229 657.386 337.118C656.777 337.007 656.201 336.76 655.7 336.397V336.397Z" fill="#CD5334"/>
<path d="M637.341 268.632C649.863 268.632 660.013 258.477 660.013 245.95C660.013 233.424 649.863 223.269 637.341 223.269C624.82 223.269 614.67 233.424 614.67 245.95C614.67 258.477 624.82 268.632 637.341 268.632Z" fill="#A0616A"/>
<path d="M555.185 290.512C555.298 291.01 555.372 291.517 555.406 292.027L595.059 314.912L604.697 309.361L614.971 322.818L594.353 337.52L549.115 301.817C547.27 302.5 545.261 302.605 543.355 302.117C541.449 301.63 539.736 300.574 538.444 299.089C537.153 297.605 536.344 295.762 536.125 293.806C535.906 291.85 536.287 289.874 537.218 288.14C538.149 286.406 539.586 284.997 541.337 284.1C543.088 283.202 545.07 282.86 547.021 283.117C548.971 283.375 550.797 284.22 552.255 285.541C553.714 286.862 554.735 288.596 555.185 290.512V290.512Z" fill="#A0616A"/>
<path d="M596.475 312.966C596.409 312.35 596.482 311.727 596.688 311.143C596.895 310.56 597.23 310.029 597.668 309.592L617.85 289.397C619.849 287.397 622.519 286.208 625.343 286.059C628.167 285.911 630.946 286.814 633.144 288.594C635.342 290.374 636.803 292.905 637.246 295.699C637.69 298.494 637.083 301.353 635.543 303.726L621.171 325.882C620.571 326.806 619.628 327.453 618.551 327.683C617.474 327.912 616.35 327.705 615.426 327.106L598.345 316.016C597.825 315.68 597.387 315.232 597.063 314.704C596.74 314.176 596.539 313.582 596.475 312.966V312.966Z" fill="#CD5334"/>
<path d="M653.385 263.895C649.156 268.402 641.301 265.983 640.75 259.825C640.707 259.347 640.71 258.866 640.759 258.388C641.044 255.661 642.619 253.185 642.241 250.305C642.156 249.588 641.889 248.905 641.466 248.32C638.096 243.805 630.184 250.34 627.003 246.252C625.053 243.746 627.345 239.8 625.849 236.999C623.873 233.302 618.022 235.125 614.353 233.101C610.27 230.848 610.515 224.581 613.202 220.77C616.479 216.122 622.226 213.641 627.9 213.284C633.575 212.926 639.211 214.461 644.508 216.526C650.528 218.873 656.497 222.117 660.201 227.412C664.706 233.851 665.14 242.509 662.887 250.038C661.516 254.619 656.839 260.214 653.385 263.895Z" fill="#2F2E41"/>
</g>
<defs>
<clipPath id="clip0">
<rect width="744" height="563.053" fill="white"/>
</clipPath>
</defs>
</svg>
